<svg width="12" height="17" viewBox="0 0 12 17" fill="none" xmlns="http://www.w3.org/2000/svg">
<path d="M10.2638 5.77263V4.57787C10.2638 2.05368 8.50633 0 6.34619 0H5.65467C3.49452 0 1.73706 2.05368 1.73706 4.57787V5.77263C0.75852 5.92589 0.000732422 6.8391 0.000732422 7.93382V14.8156C0.000732422 16.0169 0.913208 17 2.02855 17H9.97231C11.0876 17 12.0001 16.0169 12.0001 14.8156V7.93382C12.0001 6.8391 11.2423 5.92611 10.2638 5.77263ZM7.21171 13.8925C7.28732 14.3909 7.05641 14.8474 6.68951 14.8474H5.31094C4.94505 14.8474 4.71312 14.3909 4.78874 13.8925L5.26846 10.7358C5.00338 10.5635 4.798 10.3023 4.68371 9.99235C4.56943 9.68238 4.55253 9.34063 4.63559 9.01934C4.71866 8.69804 4.89712 8.41488 5.14369 8.21315C5.39027 8.01141 5.69139 7.9022 6.00104 7.9022C6.31068 7.9022 6.61181 8.01141 6.85838 8.21315C7.10496 8.41488 7.28342 8.69804 7.36648 9.01934C7.44955 9.34063 7.43264 9.68238 7.31836 9.99235C7.20408 10.3023 6.9987 10.5635 6.73362 10.7358L7.21171 13.8925ZM8.374 5.74965H3.62645V4.57787C3.62645 3.27144 4.53608 2.20847 5.65426 2.20847H6.34538C7.46336 2.20847 8.37319 3.27144 8.37319 4.57787L8.374 5.74965Z" fill="#B6B8BA"/>
</svg>
