<svg width="35" height="35" viewBox="0 0 35 35" fill="none" xmlns="http://www.w3.org/2000/svg">
<path d="M32 34.9H3C1.3 34.9 0 33.6 0 31.9V3C0 1.3 1.3 0 3 0H32C33.7 0 35 1.3 35 3V31.9C35 33.6 33.7 34.9 32 34.9Z" fill="#B4B4B4"/>
<path d="M18.4001 34.9V21H14.6001V15.9H18.4001C18.4001 15.9 18.4001 14.5 18.4001 14C18.4001 12.2 18.3001 9.49995 20.6001 7.29995C22.7001 5.19995 25.2001 5.19995 26.9001 5.19995C27.6001 5.19995 29.6001 5.19995 29.6001 5.19995V10.4C29.6001 10.4 27.0001 9.99995 25.7001 10.6C24.3001 11.3 24.0001 12.8 24.0001 14C24.0001 14.5 24.0001 15.9 24.0001 15.9H29.6001V21H24.0001V34.9H18.4001Z" fill="#1D1D1B"/>
</svg>
