<svg width="108" height="75" viewBox="0 0 108 75" fill="none" xmlns="http://www.w3.org/2000/svg">
<path d="M106.328 46.9209H83.3198L77.3969 62.9295C77.1691 63.4556 77.5488 64.0569 78.1562 64.0569L103.974 64.7333C104.581 64.7333 105.037 64.2823 105.113 63.6059L103.67 56.015L107.467 48.1234C107.467 47.447 106.935 46.9209 106.328 46.9209Z" fill="black" stroke="#B2B2B2" stroke-width="0.828593" stroke-miterlimit="10"/>
<path d="M2.14625 46.9209H23.8634L29.7863 62.9295C30.0141 63.4556 29.6344 64.0569 29.0269 64.0569L4.5002 64.7333C3.89273 64.7333 3.43713 64.2823 3.36119 63.6059L4.80394 56.015L1.00723 48.1234C0.9313 47.447 1.46284 46.9209 2.14625 46.9209Z" fill="black" stroke="#B2B2B2" stroke-width="0.828593" stroke-miterlimit="10"/>
<path d="M54.5409 72.9253C74.2933 72.9253 90.3058 57.0766 90.3058 37.5263C90.3058 17.9759 74.2933 2.1272 54.5409 2.1272C34.7884 2.1272 18.7759 17.9759 18.7759 37.5263C18.7759 57.0766 34.7884 72.9253 54.5409 72.9253Z" fill="black" stroke="#D0D0D0" stroke-width="1.27531" stroke-miterlimit="10"/>
<path d="M54.5406 74.0528C74.9221 74.0528 91.4446 57.6994 91.4446 37.5264C91.4446 17.3534 74.9221 1 54.5406 1C34.1592 1 17.6367 17.3534 17.6367 37.5264C17.6367 57.6994 34.1592 74.0528 54.5406 74.0528Z" stroke="black" stroke-width="0.840743" stroke-miterlimit="10"/>
<path d="M96.4564 59.848H11.8658C11.0305 59.848 10.4231 59.2468 10.2712 58.2697L7.84131 37.301C7.84131 36.4742 8.52472 35.7227 9.43592 35.7227H99.6457C100.481 35.7227 101.24 36.3991 101.24 37.301L98.051 58.2697C97.8992 59.2468 97.3677 59.848 96.4564 59.848Z" fill="black" stroke="#B2B2B2" stroke-width="1.122" stroke-miterlimit="10"/>
<path d="M16.4979 44.8907H14.2958V54.2103H12.7771V42.636H16.4979V44.8907Z" fill="#B2B2B2"/>
<path d="M19.4592 52.3319H17.9406L17.7128 54.2108H16.1941L17.9406 42.7119H19.5352L21.2816 54.2108H19.763L19.4592 52.3319ZM19.1555 50.0772L19.0036 48.7244C18.9277 47.8977 18.7758 46.4697 18.6999 45.5679H18.624C18.548 46.5449 18.4721 47.8977 18.3202 48.7244L18.1684 50.0772H19.1555Z" fill="#B2B2B2"/>
<path d="M26.4453 46.62C26.4453 49.1002 25.534 50.5281 24.0153 50.5281H23.4079V54.2108H21.8892V42.6367H24.0153C25.534 42.6367 26.4453 44.1398 26.4453 46.62ZM24.9266 46.62C24.9266 45.4927 24.6228 44.8914 24.0153 44.8914H23.4079V48.2735H24.0153C24.6228 48.2735 24.9266 47.6722 24.9266 46.62Z" fill="#B2B2B2"/>
<path d="M29.5586 52.3319H28.0399L27.8121 54.2108H26.2935L28.0399 42.7119H29.6346L31.381 54.2108H29.8624L29.5586 52.3319ZM29.3308 50.0772L29.103 48.7244C29.0271 47.8977 28.8752 46.4697 28.7993 45.5679H28.7233C28.6474 46.5449 28.5715 47.8977 28.4196 48.7244L28.2677 50.0772H29.3308Z" fill="#B2B2B2"/>
<path d="M36.5444 42.6367V54.1358H35.0257V49.4761H33.507V54.1358H31.9883V42.6367H33.507V47.2213H35.0257V42.6367H36.5444Z" fill="#B2B2B2"/>
<path d="M41.7079 44.8914H40.2651V54.2108H38.7465V44.8914H37.3037V42.6367H41.7079V44.8914Z" fill="#B2B2B2"/>
<path d="M42.4673 42.6367H43.91V45.3424C43.91 46.3945 43.8341 48.4238 43.7582 49.8517V49.9269C43.91 49.1753 44.0619 48.4238 44.2897 47.7474L45.6565 42.7119H47.0992V54.2108H45.6565V51.881C45.6565 50.6033 45.7324 48.4238 45.8084 46.9958V46.9206C45.5806 47.8977 45.3528 48.7995 45.125 49.7766L43.91 54.2108H42.4673V42.6367Z" fill="#B2B2B2"/>
<path d="M49.1495 49.927C48.4661 49.3257 48.1624 48.1232 48.1624 46.5449C48.1624 44.0647 48.9977 42.6367 50.4404 42.6367H52.5666V54.1358H51.0479V50.3779H50.5164L49.3773 54.1358H47.7827L49.1495 49.927ZM51.1238 48.2735V44.8914H50.5164C49.9848 44.8914 49.6811 45.4927 49.6811 46.5449C49.6811 47.5971 49.9848 48.1984 50.5164 48.1984H51.1238V48.2735Z" fill="#B2B2B2"/>
<path d="M60.4638 50.7536C60.4638 52.7828 59.5526 54.2108 58.3376 54.2108H56.0596V42.6367H58.3376C59.4766 42.6367 60.236 43.9895 60.236 45.9436C60.236 46.8455 60.0082 47.7474 59.6285 48.2735C60.1601 48.7995 60.4638 49.7014 60.4638 50.7536ZM57.5023 44.8914V47.2964H58.1098C58.5654 47.2964 58.7173 46.8455 58.7173 46.0939C58.7173 45.3424 58.4895 44.8914 58.0339 44.8914H57.5023ZM58.9451 50.7536C58.9451 49.9269 58.6414 49.476 58.1098 49.476H57.5023V52.0313H58.0339C58.6414 52.0313 58.9451 51.5803 58.9451 50.7536Z" fill="#B2B2B2"/>
<path d="M61.2231 50.4532V46.3947C61.2231 43.9145 62.1343 42.4866 63.5771 42.4866C65.0958 42.4866 65.931 43.9897 65.931 46.3947V50.4532C65.931 52.9333 65.0198 54.3613 63.5771 54.3613C62.0584 54.4365 61.2231 52.9333 61.2231 50.4532ZM64.4124 50.4532V46.3947C64.4124 45.3425 64.1086 44.7413 63.5771 44.7413C63.0456 44.7413 62.7418 45.3425 62.7418 46.3947V50.4532C62.7418 51.5054 63.0456 52.1066 63.5771 52.1066C64.1086 52.1066 64.4124 51.5805 64.4124 50.4532Z" fill="#B2B2B2"/>
<path d="M71.3984 50.9042C71.3984 53.0838 70.3353 54.4366 68.9685 54.4366C67.4498 54.4366 66.5386 52.6328 66.5386 50.6787H68.0573C68.0573 51.3551 68.361 52.1819 69.0444 52.1819C69.5759 52.1819 69.9556 51.6558 69.9556 50.7539C69.9556 49.852 69.5759 49.3259 68.9685 49.3259H68.4369V47.2966H68.8166C69.5 47.2966 69.7278 46.8457 69.7278 45.9438C69.7278 45.1922 69.5 44.7413 69.0444 44.7413C68.361 44.7413 68.2091 45.4177 68.1332 46.2444H66.6145C66.6904 44.0649 67.4498 42.4866 68.9685 42.4866C70.3353 42.4866 71.1706 43.8394 71.1706 45.8687C71.1706 46.996 70.9428 47.7476 70.1834 48.1985C71.0946 48.5743 71.3984 49.6265 71.3984 50.9042Z" fill="#B2B2B2"/>
<path d="M76.5619 50.7536C76.5619 52.7828 75.6507 54.2108 74.4357 54.2108H72.1577V42.6367H74.4357C75.5747 42.6367 76.3341 43.9895 76.3341 45.9436C76.3341 46.8455 76.1063 47.7474 75.7266 48.2735C76.2582 48.7995 76.5619 49.7014 76.5619 50.7536ZM73.6005 44.8914V47.2964H74.2079C74.6635 47.2964 74.8154 46.8455 74.8154 46.0939C74.8154 45.3424 74.5876 44.8914 74.132 44.8914H73.6005ZM75.0432 50.7536C75.0432 49.9269 74.7395 49.476 74.2079 49.476H73.6005V52.0313H74.132C74.7395 52.0313 75.0432 51.5803 75.0432 50.7536Z" fill="#B2B2B2"/>
<path d="M81.953 46.62C81.953 49.1002 81.0418 50.5281 79.5231 50.5281H78.9156V54.2108H77.397V42.6367H79.5231C81.0418 42.6367 81.953 44.1398 81.953 46.62ZM80.4343 46.62C80.4343 45.4927 80.1306 44.8914 79.5231 44.8914H78.9156V48.2735H79.5231C80.1306 48.2735 80.4343 47.6722 80.4343 46.62Z" fill="#B2B2B2"/>
<path d="M85.1424 52.3319H83.6237L83.3959 54.2108H81.8772L83.6237 42.7119H85.2183L86.9648 54.2108H85.4461L85.1424 52.3319ZM84.8386 50.0772L84.6868 48.7244C84.6108 47.8977 84.459 46.4697 84.383 45.5679H84.3071C84.2312 46.5449 84.1552 47.8977 84.0034 48.7244L83.8515 50.0772H84.8386Z" fill="#B2B2B2"/>
<path d="M91.0653 44.8914H89.6226V54.2108H88.1039V44.8914H86.6611V42.6367H91.0653V44.8914Z" fill="#B2B2B2"/>
<path d="M94.1785 52.3319H92.6598L92.432 54.2108H90.9133L92.6598 42.7119H94.2544L96.0009 54.2108H94.4822L94.1785 52.3319ZM93.8748 50.0772L93.7229 48.7244C93.647 47.8977 93.4951 46.4697 93.4192 45.5679H93.3432C93.2673 46.5449 93.1914 47.8977 93.0395 48.7244L92.8876 50.0772H93.8748Z" fill="#B2B2B2"/>
<path d="M44.5933 65.4095H63.6527C63.8046 65.4095 63.9565 65.2591 63.9565 65.1088C63.9565 64.9584 63.8046 64.8081 63.6527 64.8081H44.5933C44.4414 64.8081 44.2896 64.9584 44.2896 65.1088C44.2896 65.3343 44.4414 65.4095 44.5933 65.4095Z" fill="#B2B2B2"/>
<path d="M40.1133 63.3055H69.0442C69.1961 63.3055 69.348 63.1551 69.348 63.0048C69.348 62.8544 69.1961 62.7041 69.0442 62.7041H40.1133C39.9614 62.7041 39.8096 62.8544 39.8096 63.0048C39.8096 63.2303 39.9614 63.3055 40.1133 63.3055Z" fill="#B2B2B2"/>
<path d="M72.6891 9.71821C67.4496 6.33613 61.223 4.30688 54.5408 4.30688C47.8586 4.30688 41.5561 6.33613 36.3926 9.71821" fill="black"/>
<path d="M72.6891 9.71822C67.4496 6.33613 61.223 4.30688 54.5408 4.30688C47.8586 4.30688 41.5561 6.33613 36.3926 9.71822" stroke="#D0D0D0" stroke-width="0.743927" stroke-miterlimit="10" stroke-linecap="round" stroke-linejoin="round"/>
<path d="M59.4764 6.48642C53.3257 5.65968 46.7954 6.48642 40.7966 9.4176C34.7219 12.3488 30.0139 16.7831 26.8247 22.1193" fill="black"/>
<path d="M59.4764 6.48642C53.3257 5.65968 46.7954 6.48642 40.7966 9.4176C34.7219 12.3488 30.0139 16.7831 26.8247 22.1193" stroke="#D0D0D0" stroke-width="0.743927" stroke-miterlimit="10" stroke-linecap="round" stroke-linejoin="round"/>
<path d="M80.8141 8.13989C62.8177 12.7245 52.3388 27.8311 52.3388 27.8311L44.1379 17.1588L32.52 26.6286C38.5188 27.9814 46.416 34.5952 53.9335 41.1339C58.5654 33.543 68.9684 25.5764 79.6751 22.7204C78.9917 16.8581 79.7511 12.95 80.8141 8.13989Z" fill="#B2B2B2"/>
<path d="M80.8141 8.13989C62.8177 12.7245 52.3388 27.8311 52.3388 27.8311L44.1379 17.1588L32.52 26.6286C38.5188 27.9814 46.416 34.5952 53.9335 41.1339C58.5654 33.543 68.9684 25.5764 79.6751 22.7204C78.9917 16.8581 79.7511 12.95 80.8141 8.13989Z" stroke="#1D1D1B" stroke-width="1.32983" stroke-miterlimit="10"/>
</svg>
