<svg width="108" height="75" viewBox="0 0 108 75" fill="none" xmlns="http://www.w3.org/2000/svg">
<path d="M106.328 46.9209H83.3198L77.3969 62.9295C77.1691 63.4556 77.5488 64.0569 78.1562 64.0569L103.974 64.7333C104.581 64.7333 105.037 64.2823 105.113 63.6059L103.67 56.015L107.467 48.1234C107.467 47.447 106.935 46.9209 106.328 46.9209Z" fill="black" stroke="#B2B2B2" stroke-width="0.828593" stroke-miterlimit="10"/>
<path d="M2.14625 46.9209H23.8634L29.7863 62.9295C30.0141 63.4556 29.6344 64.0569 29.0269 64.0569L4.5002 64.7333C3.89273 64.7333 3.43713 64.2823 3.36119 63.6059L4.80394 56.015L1.00723 48.1234C0.9313 47.447 1.46284 46.9209 2.14625 46.9209Z" fill="black" stroke="#B2B2B2" stroke-width="0.828593" stroke-miterlimit="10"/>
<path d="M54.2371 72.9253C73.9896 72.9253 90.0021 57.0766 90.0021 37.5263C90.0021 17.9759 73.9896 2.1272 54.2371 2.1272C34.4847 2.1272 18.4722 17.9759 18.4722 37.5263C18.4722 57.0766 34.4847 72.9253 54.2371 72.9253Z" fill="black" stroke="#B2B2B2" stroke-width="1.27531" stroke-miterlimit="10"/>
<path d="M54.237 74.0528C74.6185 74.0528 91.141 57.6994 91.141 37.5264C91.141 17.3534 74.6185 1 54.237 1C33.8555 1 17.333 17.3534 17.333 37.5264C17.333 57.6994 33.8555 74.0528 54.237 74.0528Z" stroke="black" stroke-width="0.840743" stroke-miterlimit="10"/>
<path d="M30.0142 33.7684V16.7078C30.0142 15.8059 30.3938 15.0543 31.1532 14.3027C31.9125 13.6263 32.8237 13.1754 33.8868 12.8748V33.7684H30.0142Z" fill="#B2B2B2"/>
<path d="M35.7852 29.7851L35.7092 11.9729C35.7092 11.3716 35.937 10.7704 36.3926 10.1691C36.8482 9.56784 37.4557 9.04174 38.1391 8.66596C38.8985 8.29017 39.6578 8.0647 40.3412 8.0647H42.6193C43.3786 8.0647 44.138 8.29017 44.8973 8.66596C45.5807 9.04174 46.1882 9.56784 46.7197 10.1691C47.1753 10.7704 47.4031 11.3716 47.4031 12.048V30.0106C47.4031 30.687 47.1753 31.2883 46.7197 31.8896C46.2641 32.4908 45.7326 32.9418 44.9732 33.3175C44.2139 33.6933 43.4545 33.8436 42.6193 33.8436H40.1894C39.3541 33.8436 38.5947 33.6182 37.9873 33.2424C37.3039 32.8666 36.7723 32.3405 36.3926 31.7392C36.013 31.0628 35.7852 30.3864 35.7852 29.7851ZM39.5819 10.3946V31.4386H43.4545V10.3946H39.5819Z" fill="#B2B2B2"/>
<path d="M49.6812 29.7853L49.6052 8.89158C49.6052 8.29032 49.833 7.68907 50.2886 7.08781C50.7442 6.48655 51.3517 5.96044 52.0351 5.58466C52.7945 5.20887 53.5538 4.9834 54.2372 4.9834H56.5152C57.2746 4.9834 58.0339 5.20887 58.7932 5.58466C59.4767 5.96044 60.0841 6.48655 60.6157 7.08781C61.0713 7.68907 61.2991 8.29032 61.2991 8.96674V29.9357C61.2991 30.6121 61.0713 31.2133 60.6157 31.8146C60.1601 32.4159 59.6285 32.8668 58.8692 33.2426C58.1098 33.6184 57.3505 33.7687 56.5152 33.7687H54.0853C53.2501 33.7687 52.4907 33.5432 51.8832 33.1674C51.1998 32.7916 50.6683 32.2655 50.2886 31.6643C49.909 31.063 49.6812 30.3866 49.6812 29.7853ZM53.4779 7.38844V31.4388H57.3505V7.38844H53.4779Z" fill="#B2B2B2"/>
<path d="M72.0816 32.1899C70.1832 32.1899 68.5886 31.739 67.2218 30.9122C65.855 30.0103 64.8678 28.883 64.1844 27.455C63.501 26.027 63.1213 24.5238 63.1213 22.9455C63.1213 21.3672 63.4251 19.8641 64.1085 18.4361C64.7919 17.0081 65.779 15.8807 67.1459 14.9788C68.5127 14.077 70.1832 13.7012 72.0056 13.7012C73.8281 13.7012 75.4227 14.1521 76.7895 14.9788C78.1563 15.8807 79.1435 17.0081 79.8269 18.4361C80.5103 19.8641 80.814 21.3672 80.814 22.9455C80.814 24.5238 80.5103 25.9518 79.8269 27.455C79.1435 28.883 78.1563 30.0103 76.7895 30.9122C75.5746 31.739 73.9799 32.1899 72.0816 32.1899ZM66.994 17.5342C66.6902 17.91 66.4624 18.3609 66.3865 18.9622C66.6143 20.2399 67.2977 21.0666 68.5127 21.2921C69.1201 21.2169 69.5758 20.9163 70.0314 20.5405C70.487 20.1647 70.6388 19.6386 70.6388 19.1125C70.6388 18.5864 70.411 18.0603 69.9554 17.5342C69.4998 17.0833 68.9683 16.8578 68.5127 16.8578C67.9811 16.8578 67.4496 17.0833 66.994 17.5342ZM70.7148 28.6575L76.9414 16.7826H73.4484L67.1459 28.6575H70.7148ZM74.2837 25.0499C73.9799 25.5009 73.7521 26.027 73.6762 26.5531C73.8281 27.8308 74.5874 28.5823 75.9542 28.6575C76.5617 28.5823 77.0173 28.3569 77.4729 27.9811C77.9285 27.6053 78.0804 27.1544 78.0804 26.5531C78.0804 25.9518 77.8526 25.4257 77.397 24.8996C76.8654 24.3735 76.3339 24.1481 75.8783 24.1481C75.119 24.2232 74.5874 24.4487 74.2837 25.0499Z" fill="#B2B2B2"/>
<path d="M44.2896 65.4095H63.349C63.5009 65.4095 63.6528 65.2591 63.6528 65.1088C63.6528 64.9584 63.5009 64.8081 63.349 64.8081H44.2896C44.1377 64.8081 43.9858 64.9584 43.9858 65.1088C43.9858 65.3343 44.1377 65.4095 44.2896 65.4095Z" fill="#B2B2B2"/>
<path d="M39.7337 63.3055H68.6646C68.8165 63.3055 68.9683 63.1551 68.9683 63.0048C68.9683 62.8544 68.8165 62.7041 68.6646 62.7041H39.7337C39.5818 62.7041 39.4299 62.8544 39.4299 63.0048C39.5059 63.2303 39.5818 63.3055 39.7337 63.3055Z" fill="#B2B2B2"/>
<path d="M96.4564 59.848H11.8658C11.0305 59.848 10.4231 59.2468 10.2712 58.2697L7.84131 37.301C7.84131 36.4742 8.52472 35.7227 9.43592 35.7227H99.6457C100.481 35.7227 101.24 36.3991 101.24 37.301L98.051 58.2697C97.8992 59.2468 97.3677 59.848 96.4564 59.848Z" fill="black" stroke="#B2B2B2" stroke-width="1.122" stroke-miterlimit="10"/>
<path d="M25.458 49.7019L24.8505 51.1298V55.7896H22.5725V39.5557H24.8505V45.7937L25.458 43.9899L27.0526 39.5557H29.6344L26.7489 46.6956L30.09 55.8647H27.5083L25.458 49.7019Z" fill="#B2B2B2"/>
<path d="M35.2536 53.1591H32.8996L32.52 55.8647H30.166L32.8996 39.5557H35.3295L38.0632 55.8647H35.7092L35.2536 53.1591ZM34.798 50.0025L34.5702 48.1236C34.4183 46.9962 34.2665 44.967 34.1146 43.6893H34.0387C33.9627 45.0421 33.7349 46.9962 33.5831 48.1236L33.3553 50.0025H34.798Z" fill="#B2B2B2"/>
<path d="M44.9732 39.5557V55.9399H42.6952V50.3031C42.2396 50.4534 41.7081 50.5286 41.2525 50.5286C39.2022 50.5286 37.9873 48.4994 37.9873 45.0421V39.5557H40.2653V45.1924C40.2653 46.7707 40.7209 47.4472 41.6321 47.4472C41.9359 47.4472 42.3155 47.372 42.6952 47.2217V39.5557H44.9732Z" fill="#B2B2B2"/>
<path d="M52.8704 52.7081V55.8647H46.8716V39.5557H52.7185V42.7123H49.2255V46.0943H52.4148V49.1006H49.2255V52.7081H52.8704Z" fill="#B2B2B2"/>
<path d="M54.1611 50.8292V44.5161C54.1611 41.0589 55.452 39.1799 57.6541 39.1799C59.9321 39.1799 61.1471 41.0589 61.223 44.5161H58.945C58.8691 43.0129 58.4894 42.4117 57.6541 42.4117C56.9707 42.4117 56.591 43.0881 56.591 44.5161V50.8292C56.591 52.2572 56.9707 52.8584 57.6541 52.8584C58.5653 52.8584 58.945 52.2572 59.0209 50.8292H61.299C61.223 54.2113 59.9321 56.0902 57.6541 56.0902C55.452 56.0902 54.1611 54.2864 54.1611 50.8292Z" fill="#B2B2B2"/>
<path d="M68.5887 42.7123H66.3866V55.8647H64.0327V42.7123H61.8306V39.5557H68.5887V42.7123Z" fill="#B2B2B2"/>
<path d="M76.5616 50.9795C76.5616 53.9107 75.1948 55.8647 73.2205 55.8647H69.6516V39.5557H73.1446C74.8911 39.5557 76.106 41.4346 76.106 44.2154C76.106 45.4179 75.7264 46.7707 75.1189 47.5223C76.0301 48.1987 76.5616 49.4764 76.5616 50.9795ZM71.9296 42.7123V46.0943H72.8409C73.4483 46.0943 73.828 45.4931 73.828 44.3657C73.828 43.2384 73.5243 42.7123 72.7649 42.7123H71.9296ZM74.2077 50.9795C74.2077 49.777 73.7521 49.1758 72.9168 49.1758H71.9296V52.7081H72.7649C73.7521 52.7081 74.2077 52.1069 74.2077 50.9795Z" fill="#B2B2B2"/>
<path d="M77.7007 50.5275V44.8156C77.7007 41.3583 79.0675 39.2539 81.3455 39.2539C83.6235 39.2539 84.9904 41.3583 84.9904 44.8156V50.5275C84.9904 53.9848 83.6235 56.0892 81.3455 56.0892C79.0675 56.0892 77.7007 54.0599 77.7007 50.5275ZM82.6364 50.5275V44.8156C82.6364 43.3124 82.1808 42.4857 81.3455 42.4857C80.5102 42.4857 80.0546 43.3124 80.0546 44.8156V50.5275C80.0546 52.0307 80.5102 52.8574 81.3455 52.8574C82.1808 52.9326 82.6364 52.1058 82.6364 50.5275Z" fill="#B2B2B2"/>
</svg>
