<svg width="92" height="75" viewBox="0 0 92 75" fill="none" xmlns="http://www.w3.org/2000/svg">
<path d="M89.9263 46.9209H66.9941L61.0712 62.9295C60.8434 63.4556 61.2231 64.0569 61.8306 64.0569L87.6482 64.7333C88.2557 64.7333 88.7113 64.2823 88.7873 63.6059L87.3445 56.015L91.1412 48.1234C91.0653 47.447 90.5338 46.9209 89.9263 46.9209Z" fill="black" stroke="#B2B2B2" stroke-width="0.828593" stroke-miterlimit="10"/>
<path d="M2.14625 46.9209H23.8635L29.7863 62.9295C30.0141 63.4556 29.6345 64.0569 29.027 64.0569L4.50021 64.7333C3.89274 64.7333 3.43713 64.2823 3.3612 63.6059L4.80395 56.015L1.00723 48.1234C0.9313 47.447 1.46284 46.9209 2.14625 46.9209Z" fill="black" stroke="#B2B2B2" stroke-width="0.828593" stroke-miterlimit="10"/>
<path d="M46.3399 72.9253C66.0923 72.9253 82.1049 57.0766 82.1049 37.5263C82.1049 17.9759 66.0923 2.1272 46.3399 2.1272C26.5875 2.1272 10.575 17.9759 10.575 37.5263C10.575 57.0766 26.5875 72.9253 46.3399 72.9253Z" fill="black" stroke="#B2B2B2" stroke-width="1.27531" stroke-miterlimit="10"/>
<path d="M17.4089 29.2586L21.8131 30.1605C24.2429 30.6866 25.3819 31.7388 25.0782 33.0916C24.7745 34.5196 23.3317 35.0457 20.9019 34.5948L21.2056 33.1668C22.2687 33.3171 22.7243 33.1668 22.8761 32.6407C22.9521 32.1897 22.5724 31.8891 21.5853 31.6636L17.1811 30.7617C16.194 30.5363 15.6624 30.6866 15.5865 31.1375C15.4346 31.6636 15.8143 32.0394 16.8774 32.2649L16.4977 33.768C14.1438 33.2419 13.0047 32.1897 13.3085 30.7617C13.6122 29.3338 15.055 28.8077 17.4089 29.2586Z" fill="#B2B2B2"/>
<path d="M15.0549 39.3298H12.7769L12.8528 35.4968L24.4707 35.6471L24.3948 39.4049H22.1167V37.1503L19.6869 37.0751V39.1043H17.4848V37.0751L14.903 36.9999L15.0549 39.3298Z" fill="#B2B2B2"/>
<path d="M21.4335 44.5909C19.0036 45.0418 17.409 44.4406 17.1053 43.0126L16.9534 42.4113L13.3086 43.0877L13.0049 41.6598L24.4708 39.4802L24.8505 41.5095C25.1542 43.0126 23.8634 44.1399 21.4335 44.5909ZM21.1298 43.0877C22.2688 42.8623 22.7244 42.4865 22.6484 41.8852L22.5725 41.284L19.2314 41.9604L19.3833 42.5617C19.4592 43.1629 20.0667 43.3132 21.1298 43.0877Z" fill="#B2B2B2"/>
<path d="M24.7745 48.2734L24.243 46.9957L15.5105 50.5282L14.979 49.025L23.7114 45.4926L23.1039 44.2149L25.1542 43.3882L26.8247 47.4467L24.7745 48.2734Z" fill="#B2B2B2"/>
<path d="M26.8246 47.2964L27.6599 48.4989L25.3818 50.0021C24.4706 50.6033 22.8001 51.6555 21.5092 52.3319V52.4071C22.1926 52.1816 22.9519 51.881 23.6353 51.6555L28.647 50.0021L29.4823 51.2046L19.7627 57.5929L18.9274 56.3904L20.9017 55.1128C21.9648 54.4363 23.8631 53.2338 25.0781 52.5574V52.4822C24.1669 52.858 23.2557 53.1587 22.3445 53.4593L17.9403 54.8873L17.105 53.6848L26.8246 47.2964Z" fill="#B2B2B2"/>
<path d="M23.4837 61.3509L23.4078 61.2757C22.3447 60.3738 22.5725 58.4197 24.3949 56.3904L26.0655 54.5867C27.9638 52.4822 29.9381 52.0313 30.9253 52.9332L31.0012 53.0083L31.8365 52.1064L32.8995 53.0835L32.1402 53.9854L32.2161 54.0605C33.2792 54.9624 32.9755 56.9165 31.1531 59.021L29.4825 60.8247C27.6601 62.854 25.6858 63.3049 24.6987 62.4031L24.6227 62.3279L23.7115 63.305L22.6484 62.3279L23.4837 61.3509ZM25.0024 59.6222L29.4825 54.5867L29.3306 54.4363C28.951 54.0605 28.1916 54.2109 27.1285 55.4134L25.458 57.2172C24.4709 58.3445 24.3949 59.0961 24.7746 59.3967L25.0024 59.6222ZM26.2173 60.7496C26.597 61.1254 27.3563 60.9751 28.3435 59.8477L30.014 58.0439C31.0771 56.8414 31.1531 56.0898 30.7734 55.7892L30.6215 55.6389L26.1414 60.6744L26.2173 60.7496Z" fill="#B2B2B2"/>
<path d="M34.1902 55.3384L35.4811 56.0148L34.2661 58.4199C33.7346 59.3969 32.8234 61.1255 31.9881 62.3281V62.4032C32.4437 61.802 32.9752 61.2007 33.5068 60.6746L37.0757 56.8415L38.3666 57.518L33.0512 67.8146L31.6843 67.063L32.7474 64.9586C33.3549 63.8312 34.418 61.9523 35.1773 60.6746V60.5994C34.5698 61.351 33.9624 62.1026 33.279 62.779L30.0897 66.1611L28.7988 65.4847L34.1902 55.3384Z" fill="#B2B2B2"/>
<path d="M38.6704 64.9583L37.987 65.8602L37.1517 69.0919L35.709 68.7161L38.5945 57.5178L40.0372 57.8936L38.9741 62.2527L39.6576 61.1253L41.404 58.3445L43.0746 58.7955L40.0372 63.2297L40.4928 70.0689L38.8982 69.6932L38.6704 64.9583Z" fill="#B2B2B2"/>
<path d="M45.5046 68.4155L43.986 68.3403L43.6822 70.2192L42.1636 70.1441L44.4416 58.7202L46.0362 58.7954L47.2511 70.3696L45.7324 70.2944L45.5046 68.4155ZM45.2768 66.1608L45.2009 64.8079C45.125 63.9812 45.049 62.5532 45.049 61.6513H44.9731C44.8212 62.5532 44.6694 63.9812 44.5175 64.8079L44.2897 66.0856L45.2768 66.1608Z" fill="#B2B2B2"/>
<path d="M51.3514 60.524L49.9087 60.6743L51.1236 69.9186L49.605 70.1441L48.39 60.8998L46.9473 61.0501L46.6436 58.8706L50.9718 58.3445L51.3514 60.524Z" fill="#B2B2B2"/>
<path d="M57.3502 63.6809L57.4262 64.8082L58.793 67.8897L57.4262 68.4909L52.7942 57.8938L54.161 57.2926L55.9075 61.351L55.6797 59.9982L55.3759 56.6913L56.8946 56.0149L57.1984 61.351L61.8303 66.4617L60.3116 67.1381L57.3502 63.6809Z" fill="#B2B2B2"/>
<path d="M64.8677 62.2528L63.5769 63.1547L64.4881 64.8833L63.1972 65.7852L57.8818 55.3384L59.1727 54.4365L67.3735 62.8541L66.0827 63.756L64.8677 62.2528ZM63.2731 60.5994L62.3619 59.6223C61.8304 59.0211 60.9192 57.9689 60.3117 57.2173C60.7673 58.0441 61.5267 59.2466 61.9063 59.9981L62.5138 61.2006L63.2731 60.5994Z" fill="#B2B2B2"/>
<path d="M63.197 50.6787L71.7017 58.7206L70.6386 59.7728L67.6772 56.992C67.6012 57.2926 67.3734 57.5932 67.1456 57.7436C66.2344 58.7206 64.6398 58.2697 62.8174 56.541L60.0078 53.8353L61.0709 52.7831L63.9564 55.564C64.7917 56.3156 65.3232 56.4659 65.7029 56.0149C65.8547 55.8646 66.0066 55.6391 66.0825 55.4137L62.134 51.6558L63.197 50.6787Z" fill="#B2B2B2"/>
<path d="M73.4481 52.0315L75.3464 53.234L73.2962 56.4658L63.4248 50.3029L65.475 47.1462L67.3734 48.3488L66.1584 50.2277L68.2086 51.5054L69.3477 49.7768L71.1701 50.9041L70.0311 52.6327L72.2331 53.9856L73.4481 52.0315Z" fill="#B2B2B2"/>
<path d="M73.0686 49.9271L68.8922 48.2736C66.6142 47.3718 65.6271 46.1693 66.1586 44.8164C66.6901 43.4636 68.2088 43.163 70.5628 43.9897L70.0312 45.3425C69.0441 45.0419 68.5126 45.1171 68.3607 45.568C68.2088 46.0189 68.5126 46.3947 69.4997 46.7705L73.752 48.3488C74.6632 48.7246 75.1947 48.6494 75.3466 48.1985C75.5744 47.6724 75.2707 47.2966 74.2835 46.8457L74.8151 45.4929C77.0931 46.3947 78.0043 47.6724 77.4728 49.0252C76.9412 50.4532 75.3466 50.7538 73.0686 49.9271Z" fill="#B2B2B2"/>
<path d="M70.0312 39.3297L69.8034 40.7577L79.0674 42.336L78.8396 43.8392L69.5756 42.2609L69.3478 43.6889L67.1458 43.3131L67.9051 39.0291L70.0312 39.3297Z" fill="#B2B2B2"/>
<path d="M75.8781 34.3696C77.9283 34.2945 79.3711 35.1963 79.3711 36.3988L79.447 38.6535L67.7532 38.9542L67.6772 36.6995C67.6772 35.5721 68.9681 34.7454 70.9424 34.7454C71.8536 34.7454 72.7648 34.9709 73.3723 35.2715C73.9038 34.7454 74.815 34.3696 75.8781 34.3696ZM69.9553 37.451L72.3852 37.3759V36.7746C72.3852 36.3237 71.9296 36.1734 71.0943 36.1734C70.3349 36.1734 69.8793 36.3988 69.9553 36.8498V37.451ZM75.8781 35.8727C75.0428 35.8727 74.5872 36.1734 74.5872 36.7746V37.3759L77.169 37.3007V36.7746C77.169 36.0982 76.7134 35.8727 75.8781 35.8727Z" fill="#B2B2B2"/>
<path d="M76.5616 30.0104L76.8653 31.5135L78.8396 31.3632L79.1433 32.8663L67.3736 33.6179L67.0698 32.1148L78.0802 27.9812L78.384 29.4843L76.5616 30.0104ZM74.4354 30.762L73.1445 31.2129C72.3852 31.5135 71.0184 31.8893 70.1072 32.1899V32.2651C71.0184 32.1148 72.4611 31.9644 73.2964 31.8893L74.6632 31.739L74.4354 30.762Z" fill="#B2B2B2"/>
<path d="M46.34 74.0528C66.7215 74.0528 83.244 57.6994 83.244 37.5264C83.244 17.3534 66.7215 1 46.34 1C25.9585 1 9.43604 17.3534 9.43604 37.5264C9.43604 57.6994 25.9585 74.0528 46.34 74.0528Z" stroke="black" stroke-width="0.840743" stroke-miterlimit="10"/>
<path d="M59.932 6.93719C54.2369 4.38181 47.7825 3.3296 41.1763 4.38181C34.4941 5.35887 28.6471 8.36519 24.0151 12.4989" fill="black"/>
<path d="M59.932 6.93719C54.2369 4.38181 47.7825 3.3296 41.1763 4.38181C34.4941 5.35887 28.6471 8.36519 24.0151 12.4989" stroke="#B2B2B2" stroke-width="0.743927" stroke-miterlimit="10" stroke-linecap="round" stroke-linejoin="round"/>
<path d="M51.2756 6.4864C45.125 5.65968 38.5947 6.56156 32.5199 9.41751C26.4452 12.3486 21.7373 16.7829 18.5481 22.119" fill="black"/>
<path d="M51.2756 6.4864C45.125 5.65968 38.5947 6.56156 32.5199 9.41751C26.4452 12.3486 21.7373 16.7829 18.5481 22.119" stroke="#B2B2B2" stroke-width="0.743927" stroke-miterlimit="10" stroke-linecap="round" stroke-linejoin="round"/>
<path d="M62.5897 9.8686C61.9063 9.71828 61.2229 9.71828 60.6913 9.8686C60.6154 9.8686 60.6154 9.8686 60.5395 9.8686C56.0594 10.996 51.4274 10.996 46.8713 11.0711C44.7452 11.0711 42.5431 11.1463 40.4169 11.2966C38.5186 11.4469 36.6202 11.6724 34.9497 12.7246C31.9123 14.6787 30.3936 18.4365 29.8621 21.8186C29.5583 23.8478 29.6343 26.0274 30.1658 28.0566C30.6974 30.2362 31.6086 32.2654 32.0642 34.5201C32.5957 37.0003 32.6716 39.5557 32.216 42.0359C31.8364 44.2906 31.153 47.0714 29.0268 48.2739C28.5712 48.5745 28.7231 49.1758 29.0268 49.3261C29.1027 49.3261 29.1027 49.4013 29.1787 49.4013C32.1401 50.3031 35.2534 50.5286 38.3667 50.6789C39.9613 50.7541 41.5559 50.7541 43.0746 50.8292C44.4414 50.9044 45.8842 51.1299 47.251 51.0547C47.0991 51.4305 46.9473 51.8063 46.7954 52.1821C46.4917 52.8585 46.0361 53.6852 45.8842 54.4368C45.7323 55.5641 47.1751 55.8648 47.9344 56.1654C49.0734 56.6163 49.2253 56.0151 49.529 54.9629C49.605 54.7374 49.6809 54.4368 49.7568 54.2113C49.7568 54.5871 49.7568 55.1132 49.9846 55.4138C50.4402 56.0151 51.5792 55.8648 52.1867 55.9399C52.6423 55.9399 52.8701 55.6393 52.7942 55.2635C52.7183 53.9107 52.6423 52.4827 52.4905 51.1299C53.4017 51.1299 54.2369 51.0547 55.0722 50.9044C55.1482 50.9044 55.2241 50.8292 55.3 50.8292C55.376 50.8292 55.376 50.7541 55.4519 50.7541C56.7428 49.8522 57.654 47.6726 58.2615 46.2447C58.9449 44.5912 59.4005 42.8626 59.7042 41.134C60.4635 37.0003 60.0839 32.7164 59.4005 28.5827C58.7171 24.5994 57.1984 20.4658 57.654 16.3321C57.654 16.3321 57.654 16.3321 57.7299 16.3321C60.0839 16.1818 62.4378 16.1066 64.8677 16.1066C65.3993 16.1066 65.5511 15.5805 65.3993 15.2048C66.3864 12.95 65.0955 10.3195 62.5897 9.8686ZM49.1494 52.7833C48.9975 53.2343 48.8456 53.7604 48.7697 54.2113C48.7697 54.2865 48.6937 54.8126 48.6178 55.1132C48.39 54.9629 48.1622 54.8877 47.8585 54.7374C47.8585 54.7374 47.251 54.5871 47.251 54.6623C47.251 54.5119 47.6307 53.7604 47.7066 53.6852C48.1622 52.5578 48.6178 51.5056 48.9975 50.3783C49.3012 50.5286 49.605 50.5286 49.9087 50.5286C49.605 51.2802 49.3772 52.0317 49.1494 52.7833ZM52.3386 43.4638C52.3386 43.6142 52.4145 43.7645 52.5664 43.8396C54.5407 45.5682 52.9461 49.3261 50.2884 47.7478C49.2253 47.0714 48.6178 45.6434 49.3772 44.5912C49.9087 43.9148 51.3514 43.0881 52.3386 43.4638ZM49.9846 42.6371C49.9846 42.4868 50.0606 42.2613 50.2124 42.1862C50.3643 42.111 50.5162 42.0359 50.668 42.0359C50.744 42.0359 50.8199 42.0359 50.8958 42.0359C50.8958 42.111 50.8958 42.1862 50.9718 42.2613C50.5921 42.4116 50.2884 42.4868 49.9846 42.6371ZM52.3386 42.2613C52.5664 42.1862 52.7942 42.111 52.9461 42.2613C53.022 42.3365 53.1739 42.4116 53.1739 42.562C52.8701 42.4116 52.6423 42.3365 52.3386 42.2613ZM54.5407 44.8918C54.4647 44.516 54.3129 44.2154 54.0851 43.8396C54.3129 43.9148 54.5407 43.9899 54.6166 44.2154C54.7685 44.4409 54.6925 44.7415 54.5407 44.8918ZM54.6925 46.3198C54.7685 46.3198 54.7685 46.3198 54.7685 46.395C54.7685 46.395 54.7685 46.4701 54.8444 46.4701C54.9203 46.5453 54.9203 46.6956 54.9963 46.8459C55.0722 47.0714 55.0722 47.2217 54.9203 47.2968C54.8444 47.372 54.6166 47.372 54.4647 47.372C54.5407 46.9211 54.6166 46.6204 54.6925 46.3198ZM52.3386 49.4013C52.4145 49.3261 52.4145 49.1758 52.4145 49.1006C52.7942 49.0255 53.0979 48.8 53.4017 48.5745C54.0091 48.9503 52.7942 49.9274 52.3386 49.4013ZM49.605 49.3261C48.9975 49.1758 48.9975 48.8 49.1494 48.349C49.2253 48.349 49.2253 48.4242 49.3012 48.4242C49.7568 48.8 50.2884 49.0255 50.8958 49.1758C50.4402 49.4012 49.9846 49.4013 49.605 49.3261ZM51.3514 54.7374C51.2755 54.7374 51.2755 54.7374 51.1996 54.6623C51.1996 54.5871 51.1996 54.5119 51.1236 54.4368C51.1996 53.6852 50.9718 52.8585 50.9718 52.1069C50.9718 51.8814 50.8958 51.8063 50.744 51.7311C50.8958 51.205 51.1236 50.6789 51.3514 50.228C51.3514 50.228 51.4274 50.228 51.4274 50.1528L51.5033 50.228C51.4274 50.3031 51.4274 50.4535 51.4274 50.5286C51.5033 51.8814 51.6552 53.3094 51.7311 54.7374C51.6552 54.7374 51.5033 54.7374 51.3514 54.7374ZM47.8585 46.0192C47.9344 46.3198 48.0103 46.6956 48.1622 46.9962C47.8585 46.9962 47.6307 46.9211 47.4029 46.8459C47.251 46.6956 47.251 46.1695 47.251 46.1695C47.4788 46.1695 47.7066 46.1695 47.8585 46.0192ZM47.8585 44.1403C48.0103 44.0651 48.1622 43.9899 48.3141 43.9148C48.1622 44.2154 48.0103 44.4409 47.9344 44.7415C47.7066 44.6664 47.6307 44.3657 47.8585 44.1403ZM64.4881 14.9793C62.3619 14.9793 60.2357 15.0544 58.1096 15.2048C58.4893 13.2507 59.4005 10.9208 61.8304 10.9208C63.9565 10.996 65.0955 13.1004 64.4881 14.9793Z" fill="#B2B2B2"/>
<path d="M36.0886 19.1129H52.0349C52.1868 19.1129 52.2627 19.0377 52.2627 18.8874C52.2627 18.737 52.1868 18.6619 52.0349 18.6619H36.0886C35.9368 18.6619 35.8608 18.737 35.8608 18.8874C35.8608 18.9625 36.0127 19.1129 36.0886 19.1129Z" fill="black"/>
<path d="M35.709 23.0211H51.6551C51.807 23.0211 51.8829 22.9459 51.8829 22.7956C51.8829 22.6452 51.807 22.5701 51.6551 22.5701H35.709C35.5571 22.5701 35.4812 22.6452 35.4812 22.7956C35.4812 22.9459 35.5571 23.0211 35.709 23.0211Z" fill="black"/>
<path d="M36.4685 27.0043H52.4147C52.5665 27.0043 52.6425 26.9291 52.6425 26.7788C52.6425 26.6284 52.5665 26.5532 52.4147 26.5532H36.4685C36.3167 26.5532 36.2407 26.6284 36.2407 26.7788C36.2407 26.9291 36.3167 27.0043 36.4685 27.0043Z" fill="black"/>
<path d="M37.6834 30.9876H53.6296C53.7815 30.9876 53.8574 30.9125 53.8574 30.7621C53.8574 30.6118 53.7815 30.5366 53.6296 30.5366H37.6834C37.5315 30.5366 37.4556 30.6118 37.4556 30.7621C37.4556 30.9125 37.5315 30.9876 37.6834 30.9876Z" fill="black"/>
<path d="M38.4426 34.9708H54.3888C54.5406 34.9708 54.6166 34.8956 54.6166 34.7453C54.6166 34.5949 54.5406 34.5198 54.3888 34.5198H38.4426C38.2908 34.5198 38.2148 34.5949 38.2148 34.7453C38.2148 34.8205 38.2908 34.9708 38.4426 34.9708Z" fill="black"/>
<path d="M45.9602 54.4368L48.1623 49.2509C48.1623 49.2509 47.7067 48.7248 47.7826 48.2739C47.8586 47.8229 47.403 47.5223 47.0233 47.2968C46.6436 47.0714 46.3399 45.944 46.7955 45.3428C47.2511 44.7415 46.4917 43.8396 48.0104 43.2384C49.5291 42.6371 48.8457 42.111 50.2125 41.66C51.5034 41.2091 51.1997 42.111 52.3387 41.8104C53.5536 41.5097 53.1739 42.8626 54.0852 43.1632C54.9204 43.4638 55.376 43.8396 55.2242 44.6663C55.0723 45.4931 55.6798 45.8689 55.5279 46.7707C55.376 47.6726 54.6167 47.5975 54.5408 48.4242C54.4648 49.2509 53.2499 50.1528 52.7183 50.1528L53.098 55.1132" stroke="#1D1D1B" stroke-width="0.224765" stroke-miterlimit="10"/>
</svg>
