<svg width="121" height="75" viewBox="0 0 121 75" fill="none" xmlns="http://www.w3.org/2000/svg">
<path d="M118.629 47.2014H95.6971L89.7742 63.2099C89.5464 63.7359 89.9261 64.3372 90.5336 64.3372L116.351 65.0136C116.959 65.0136 117.414 64.5627 117.49 63.8863L116.047 56.2954L119.844 48.4039C119.844 47.7275 119.313 47.2014 118.629 47.2014Z" fill="black" stroke="#B2B2B2" stroke-width="0.828593" stroke-miterlimit="10"/>
<path d="M2.14625 47.2014H23.8634L29.7863 63.2099C30.0141 63.7359 29.6344 64.3372 29.0269 64.3372L4.5002 65.0136C3.89273 65.0136 3.43713 64.5627 3.36119 63.8863L4.80394 56.2954L1.00723 48.4039C0.9313 47.7275 1.46284 47.2014 2.14625 47.2014Z" fill="black" stroke="#B2B2B2" stroke-width="0.828593" stroke-miterlimit="10"/>
<path d="M60.3878 73.2058C80.1402 73.2058 96.1527 57.3571 96.1527 37.8068C96.1527 18.2564 80.1402 2.40771 60.3878 2.40771C40.6353 2.40771 24.6228 18.2564 24.6228 37.8068C24.6228 57.3571 40.6353 73.2058 60.3878 73.2058Z" fill="black" stroke="#B2B2B2" stroke-width="1.27531" stroke-miterlimit="10"/>
<path d="M60.3876 74.333C80.7691 74.333 97.2916 57.9796 97.2916 37.8066C97.2916 17.6337 80.7691 1.28027 60.3876 1.28027C40.0061 1.28027 23.4836 17.6337 23.4836 37.8066C23.4836 57.9796 40.0061 74.333 60.3876 74.333Z" stroke="black" stroke-width="0.840743" stroke-miterlimit="10"/>
<path d="M82.4846 24.9547C82.4846 23.1509 82.2568 21.0465 81.3455 19.4682C80.0547 17.439 77.7007 16.6874 75.4227 16.3868C73.9799 16.2365 72.4612 16.2365 70.9426 16.2365C70.1073 16.2365 69.272 16.6123 69.272 17.5893V26.6081H68.2849V15.5601C68.2849 14.8085 67.6774 14.2073 66.8421 14.2073H42.8469C42.0876 14.2073 41.556 14.7334 41.4042 15.4098H34.1145V16.5371H45.049V17.5142H41.4042V18.4912H36.2407V19.6186H44.1378V20.5956H41.4801V21.5726H37.3037V22.7H43.2266V23.677H41.4801V27.4349C41.4801 28.1864 42.0876 28.7877 42.9229 28.7877H43.9859C44.5175 26.6833 46.4918 25.105 48.7698 25.105C51.0478 25.105 53.0221 26.6833 53.5536 28.7877H54.4649C54.9964 26.6833 56.9707 25.105 59.2487 25.105C61.5267 25.105 63.501 26.6833 64.0326 28.7877H66.9181C66.994 28.7877 67.0699 28.7877 67.1459 28.7877H70.7907C71.3222 26.6833 73.2965 25.105 75.5745 25.105C78.3082 25.105 80.5103 27.2845 80.5103 29.9902C80.5103 30.2157 80.5103 30.5163 80.4343 30.7417C80.6621 30.9672 80.9659 31.1175 81.3455 31.1175C82.0289 31.1175 82.5605 30.5914 82.5605 29.915V27.961V27.2845V26.7584V26.6833V26.6081V24.9547H82.4846ZM79.9028 23.3012H71.8538C71.2463 23.3012 70.7148 22.7751 70.7148 22.1739V18.6415C70.7148 18.0403 71.2463 17.5142 71.8538 17.5142C74.5115 17.5142 78.3841 17.6645 80.0547 19.9943C80.3584 20.4453 80.8899 21.3472 80.9659 22.0987C81.0418 22.8503 80.814 23.3012 79.9028 23.3012Z" fill="#B2B2B2"/>
<path d="M82.4846 24.9547C82.4846 23.1509 82.2568 21.0465 81.3455 19.4682C80.0547 17.439 77.7007 16.6874 75.4227 16.3868C73.9799 16.2365 72.4612 16.2365 70.9426 16.2365C70.1073 16.2365 69.272 16.6123 69.272 17.5893V26.6081H68.2849V15.5601C68.2849 14.8085 67.6774 14.2073 66.8421 14.2073H42.8469C42.0876 14.2073 41.556 14.7334 41.4042 15.4098H34.1145V16.5371H45.049V17.5142H41.4042V18.4912H36.2407V19.6186H44.1378V20.5956H41.4801V21.5726H37.3037V22.7H43.2266V23.677H41.4801V27.4349C41.4801 28.1864 42.0876 28.7877 42.9229 28.7877H43.9859C44.5175 26.6833 46.4918 25.105 48.7698 25.105C51.0478 25.105 53.0221 26.6833 53.5536 28.7877H54.4649C54.9964 26.6833 56.9707 25.105 59.2487 25.105C61.5267 25.105 63.501 26.6833 64.0326 28.7877H66.9181C66.994 28.7877 67.0699 28.7877 67.1459 28.7877H70.7907C71.3222 26.6833 73.2965 25.105 75.5745 25.105C78.3082 25.105 80.5103 27.2845 80.5103 29.9902C80.5103 30.2157 80.5103 30.5163 80.4343 30.7417C80.6621 30.9672 80.9659 31.1175 81.3455 31.1175C82.0289 31.1175 82.5605 30.5914 82.5605 29.915V27.961V27.2845V26.7584V26.6833V26.6081V24.9547H82.4846ZM79.9028 23.3012H71.8538C71.2463 23.3012 70.7148 22.7751 70.7148 22.1739V18.6415C70.7148 18.0403 71.2463 17.5142 71.8538 17.5142C74.5115 17.5142 78.3841 17.6645 80.0547 19.9943C80.3584 20.4453 80.8899 21.3472 80.9659 22.0987C81.0418 22.8503 80.814 23.3012 79.9028 23.3012Z" fill="#B2B2B2"/>
<path d="M79.0676 29.84C79.0676 31.794 77.473 33.3723 75.4987 33.3723C73.5244 33.3723 71.9298 31.794 71.9298 29.84C71.9298 27.8859 73.5244 26.3076 75.4987 26.3076C77.473 26.3076 79.0676 27.8859 79.0676 29.84Z" fill="#B2B2B2"/>
<path d="M79.0676 29.84C79.0676 31.794 77.473 33.3723 75.4987 33.3723C73.5244 33.3723 71.9298 31.794 71.9298 29.84C71.9298 27.8859 73.5244 26.3076 75.4987 26.3076C77.473 26.3076 79.0676 27.8859 79.0676 29.84Z" fill="#B2B2B2"/>
<path d="M62.7417 29.84C62.7417 31.794 61.1471 33.3723 59.1728 33.3723C57.1985 33.3723 55.6039 31.794 55.6039 29.84C55.6039 27.8859 57.1985 26.3076 59.1728 26.3076C61.1471 26.3076 62.7417 27.8859 62.7417 29.84Z" fill="#B2B2B2"/>
<path d="M62.7417 29.84C62.7417 31.794 61.1471 33.3723 59.1728 33.3723C57.1985 33.3723 55.6039 31.794 55.6039 29.84C55.6039 27.8859 57.1985 26.3076 59.1728 26.3076C61.1471 26.3076 62.7417 27.8859 62.7417 29.84Z" fill="#B2B2B2"/>
<path d="M52.2628 29.84C52.2628 31.794 50.6682 33.3723 48.6939 33.3723C46.7196 33.3723 45.125 31.794 45.125 29.84C45.125 27.8859 46.7196 26.3076 48.6939 26.3076C50.6682 26.3076 52.2628 27.8859 52.2628 29.84Z" fill="#B2B2B2"/>
<path d="M52.2628 29.84C52.2628 31.794 50.6682 33.3723 48.6939 33.3723C46.7196 33.3723 45.125 31.794 45.125 29.84C45.125 27.8859 46.7196 26.3076 48.6939 26.3076C50.6682 26.3076 52.2628 27.8859 52.2628 29.84Z" fill="#B2B2B2"/>
<path d="M107.922 60.5793H12.6251C11.638 60.5793 10.9546 59.9028 10.8786 58.9258L8.14502 37.2055C8.14502 36.3036 8.9803 35.552 9.8915 35.552H111.491C112.479 35.552 113.238 36.3036 113.238 37.2055L109.669 58.9258C109.517 59.978 108.91 60.5793 107.922 60.5793Z" fill="black" stroke="#B2B2B2" stroke-width="1.21259" stroke-miterlimit="10"/>
<path d="M16.5737 49.6811C16.5737 51.9358 15.8144 52.9129 14.2957 52.9129H12.0936V42.3909H16.1941V44.4201H13.6123V46.4493H14.2957C15.8144 46.4493 16.5737 47.8022 16.5737 49.6811ZM15.0551 49.6811C15.0551 48.7792 14.7513 48.4034 14.1438 48.4034H13.6123V50.8836H14.1438C14.7513 50.9588 15.0551 50.583 15.0551 49.6811Z" fill="#B2B2B2"/>
<path d="M21.3576 50.9588V52.988H17.485V42.3909H21.2817V44.4201H19.0037V46.5997H21.0539V48.5538H19.0037V50.8836H21.3576V50.9588Z" fill="#B2B2B2"/>
<path d="M22.1929 49.7564V45.6228C22.1929 43.368 23.0281 42.1655 24.4709 42.1655C25.9136 42.1655 26.7489 43.368 26.8249 45.6228H25.3062C25.2302 44.6457 25.0024 44.2699 24.4709 44.2699C24.0153 44.2699 23.7875 44.7209 23.7875 45.6228V49.7564C23.7875 50.6583 24.0153 51.1093 24.4709 51.1093C25.0784 51.1093 25.3062 50.7335 25.3821 49.7564H26.9008C26.9008 52.0112 25.9896 53.1385 24.5468 53.1385C23.0281 53.1385 22.1929 51.936 22.1929 49.7564Z" fill="#B2B2B2"/>
<path d="M32.1403 52.988H30.6216V44.4201H29.1029V52.9129H27.5842V42.3909H32.0644V52.988H32.1403Z" fill="#B2B2B2"/>
<path d="M38.0631 42.3909V52.988H36.5444V44.4201H35.3294C35.2535 47.2009 35.1016 49.0047 34.9498 50.2072C34.646 52.7625 33.8867 53.1383 32.6718 53.1383V51.1842C33.1274 51.1842 33.3552 50.9587 33.507 49.6059C33.6589 48.5537 33.7348 46.8251 33.8867 42.3909H38.0631Z" fill="#B2B2B2"/>
<path d="M42.0877 51.1842H40.569L40.3412 52.9128H38.8225L40.569 42.3157H42.1636L43.8341 52.988H42.3155L42.0877 51.1842ZM41.7839 49.155L41.6321 47.9525C41.5561 47.2009 41.4043 45.9232 41.3283 45.0213H41.2524C41.1765 45.8481 41.1005 47.2009 40.9487 47.9525L40.7968 49.155H41.7839Z" fill="#B2B2B2"/>
<path d="M48.0105 44.4201H46.5677V52.9129H45.0491V44.4201H43.6063V42.3909H48.0105V44.4201Z" fill="#B2B2B2"/>
<path d="M53.174 42.3909V52.988H51.6553V48.7041H50.1366V52.988H48.6179V42.3909H50.1366V46.5997H51.6553V42.3909H53.174Z" fill="#B2B2B2"/>
<path d="M57.1985 51.1842H55.6798L55.452 52.9128H53.9333L55.6798 42.3157H57.2744L59.0209 52.988H57.5023L57.1985 51.1842ZM56.8948 49.155L56.7429 47.9525C56.667 47.2009 56.5151 45.9232 56.4392 45.0213H56.3632C56.2873 45.8481 56.2114 47.2009 56.0595 47.9525L55.9836 49.155H56.8948Z" fill="#B2B2B2"/>
<path d="M60.4637 49.0798C59.7803 48.5537 59.4766 47.4264 59.4766 45.9984C59.4766 43.7437 60.3119 42.3909 61.7546 42.3909H63.8808V52.988H62.3621V49.5308H61.8305L60.6915 52.988H59.0969L60.4637 49.0798ZM62.3621 47.5016V44.4201H61.7546C61.2231 44.4201 60.9193 44.9462 60.9193 45.9233C60.9193 46.9003 61.2231 47.4264 61.7546 47.4264H62.3621V47.5016Z" fill="#B2B2B2"/>
<path d="M72.765 50.9589V54.7919H71.3223V52.9882H68.1331V54.7919H66.6903V50.9589H67.1459C67.8293 49.9818 67.9812 48.2532 67.9812 46.8252L68.1331 42.4661H72.0816V51.034H72.765V50.9589ZM70.6389 44.4202H69.4999L69.4239 47.4265C69.4239 48.7042 69.2721 49.9818 68.8924 50.9589H70.6389V44.4202Z" fill="#B2B2B2"/>
<path d="M73.2965 49.5297V45.847C73.2965 43.5923 74.2077 42.2395 75.6505 42.2395C77.1692 42.2395 78.0044 43.5923 78.0044 45.847V49.5297C78.0044 51.7843 77.0932 53.1372 75.6505 53.1372C74.2077 53.1372 73.2965 51.7843 73.2965 49.5297ZM76.4857 49.5297V45.847C76.4857 44.87 76.182 44.3439 75.6505 44.3439C75.1189 44.3439 74.8152 44.87 74.8152 45.847V49.5297C74.8152 50.5067 75.1189 51.0328 75.6505 51.0328C76.2579 51.0328 76.4857 50.5067 76.4857 49.5297Z" fill="#B2B2B2"/>
<path d="M78.9156 49.7564V45.6228C78.9156 43.368 79.7509 42.1655 81.1937 42.1655C82.6364 42.1655 83.4717 43.368 83.5476 45.6228H82.029C81.953 44.6457 81.7252 44.2699 81.1937 44.2699C80.7381 44.2699 80.5103 44.7209 80.5103 45.6228V49.7564C80.5103 50.6583 80.7381 51.1093 81.1937 51.1093C81.8011 51.1093 82.0289 50.7335 82.1049 49.7564H83.6236C83.6236 52.0112 82.7124 53.1385 81.2696 53.1385C79.7509 53.1385 78.9156 51.936 78.9156 49.7564Z" fill="#B2B2B2"/>
<path d="M88.3315 44.4201H86.8888V52.9129H85.3701V44.4201H83.9274V42.3909H88.3315V44.4201Z" fill="#B2B2B2"/>
<path d="M91.3689 51.1842H89.8502L89.6224 52.9128H88.1038L89.8502 42.3157H91.4449L93.1913 52.9128H91.6727L91.3689 51.1842ZM91.1411 49.155L90.9893 47.9525C90.9133 47.2009 90.7615 45.9232 90.6855 45.0213H90.6096C90.5336 45.8481 90.4577 47.2009 90.3058 47.9525L90.154 49.155H91.1411Z" fill="#B2B2B2"/>
<path d="M98.3549 49.8314C98.3549 51.7103 97.4436 52.988 96.2287 52.988H93.9507V42.3909H96.2287C97.3677 42.3909 98.1271 43.5934 98.1271 45.3972C98.1271 46.2239 97.8992 47.0506 97.5196 47.5767C97.9752 48.0276 98.3549 48.8544 98.3549 49.8314ZM95.3175 44.4201V46.5997H95.925C96.3806 46.5997 96.5324 46.2239 96.5324 45.4723C96.5324 44.7959 96.3046 44.4201 95.849 44.4201H95.3175ZM96.7602 49.8314C96.7602 49.0798 96.4565 48.7041 95.925 48.7041H95.3175V51.0339H95.849C96.4565 50.9588 96.7602 50.583 96.7602 49.8314Z" fill="#B2B2B2"/>
<path d="M101.088 49.0046L100.709 49.9816V53.063H99.266V42.3909H100.709V46.4493L101.088 45.2468L102.076 42.3909H103.746L101.924 46.9754L104.126 52.9127H102.455L101.088 49.0046Z" fill="#B2B2B2"/>
<path d="M107.391 51.1842H105.872L105.644 52.9128H104.126L105.872 42.3157H107.467L109.213 52.9128H107.695L107.391 51.1842ZM107.163 49.155L107.011 47.9525C106.935 47.2009 106.783 45.9232 106.707 45.0213H106.632C106.556 45.8481 106.48 47.2009 106.328 47.9525L106.176 49.155H107.163Z" fill="#B2B2B2"/>
<path d="M50.4403 65.69H69.4998C69.6517 65.69 69.8035 65.5396 69.8035 65.3893C69.8035 65.239 69.6517 65.0886 69.4998 65.0886H50.4403C50.2885 65.0886 50.1366 65.239 50.1366 65.3893C50.1366 65.6148 50.2885 65.69 50.4403 65.69Z" fill="#B2B2B2"/>
<path d="M45.8843 63.5857H74.8152C74.9671 63.5857 75.1189 63.4354 75.1189 63.2851C75.1189 63.1347 74.9671 62.9844 74.8152 62.9844H45.8843C45.7324 62.9844 45.5806 63.1347 45.5806 63.2851C45.6565 63.5106 45.7324 63.5857 45.8843 63.5857Z" fill="#B2B2B2"/>
<path d="M78.536 9.99824C73.2966 6.61616 67.07 4.58691 60.3878 4.58691C53.7056 4.58691 47.403 6.61616 42.2395 9.99824" fill="black"/>
<path d="M78.536 9.99824C73.2966 6.61616 67.07 4.58691 60.3878 4.58691C53.7056 4.58691 47.403 6.61616 42.2395 9.99824" stroke="#B2B2B2" stroke-width="0.743927" stroke-miterlimit="10" stroke-linecap="round" stroke-linejoin="round"/>
</svg>
