<svg width="35" height="35" viewBox="0 0 35 35" fill="none" xmlns="http://www.w3.org/2000/svg">
<path d="M24.4 34.9H10.5C7.7 34.9 5.1 33.8 3.1 31.8C1.1 29.8 0 27.2 0 24.4V10.5C0 7.7 1.1 5.1 3.1 3.1C5.1 1.1 7.7 0 10.5 0H24.4C27.2 0 29.8 1.1 31.8 3.1C33.8 5.1 34.9 7.7 34.9 10.5V24.4C34.9 27.2 33.8 29.8 31.8 31.8C29.8 33.8 27.2 34.9 24.4 34.9ZM10.5 2.9C6.3 2.9 2.89999 6.3 2.89999 10.5V24.4C2.89999 28.6 6.3 32 10.5 32H24.4C28.6 32 32 28.6 32 24.4V10.5C32 6.3 28.6 2.9 24.4 2.9H10.5Z" fill="#B4B4B4"/>
<path d="M17.4 26.4001C12.5 26.4001 8.5 22.4001 8.5 17.5001C8.5 12.6001 12.5 8.6001 17.4 8.6001C22.3 8.6001 26.3 12.6001 26.3 17.5001C26.3 22.4001 22.4 26.4001 17.4 26.4001ZM17.4 11.4001C14.1 11.4001 11.4 14.1001 11.4 17.4001C11.4 20.7001 14.1 23.4001 17.4 23.4001C20.7 23.4001 23.4 20.7001 23.4 17.4001C23.5 14.1001 20.8 11.4001 17.4 11.4001Z" fill="#B4B4B4"/>
<path d="M26.5999 10.0001C27.5388 10.0001 28.2999 9.23898 28.2999 8.3001C28.2999 7.36121 27.5388 6.6001 26.5999 6.6001C25.661 6.6001 24.8999 7.36121 24.8999 8.3001C24.8999 9.23898 25.661 10.0001 26.5999 10.0001Z" fill="#1D1D1B" stroke="#B4B4B4" stroke-width="0.7552" stroke-miterlimit="10"/>
</svg>
