<svg width="153" height="75" viewBox="0 0 153 75" fill="none" xmlns="http://www.w3.org/2000/svg">
<g clip-path="url(#clip0)">
<path d="M25.3884 42.9649C25.3884 49.4934 22.3753 54.0131 15.5678 54.0131C13.3917 54.0131 10.7691 53.2319 9.82057 50.9441H9.59737L8.81619 53.3435H2.39934V30.466H0V24.2166H9.70897V34.9299H9.87637C10.9365 33.0327 13.0569 32.0284 15.7352 32.0284C20.6455 32.0284 25.3884 35.4879 25.3884 42.9649ZM18.023 42.9649C18.023 40.2866 15.9026 38.4452 13.8381 38.4452C11.6061 38.4452 9.70897 40.6772 9.70897 42.9649C9.70897 46.3128 11.9409 47.8752 14.0613 47.8752C15.9584 47.8194 18.023 45.978 18.023 42.9649Z" fill="white"/>
<path d="M46.7035 41.1794C46.7035 46.2013 42.407 50.3304 37.1619 50.3304C31.9168 50.3304 27.6761 46.2571 27.6761 41.1794C27.6761 36.1575 31.9168 32.0842 37.1619 32.0842C42.407 32.0842 46.7035 36.1575 46.7035 41.1794ZM40.6214 41.291C40.6214 39.1707 39.0591 37.4409 37.1619 37.4409C35.2648 37.4409 33.7024 39.1707 33.7024 41.291C33.7024 43.4114 35.2648 45.1969 37.1619 45.1969C39.0591 45.1969 40.6214 43.4114 40.6214 41.291Z" fill="white"/>
<path d="M67.1257 41.1794C67.1257 46.2013 62.8292 50.3304 57.5842 50.3304C52.3391 50.3304 48.0984 46.2571 48.0984 41.1794C48.0984 36.1575 52.3391 32.0842 57.5842 32.0842C62.8292 32.0842 67.1257 36.1575 67.1257 41.1794ZM61.0437 41.291C61.0437 39.1707 59.4813 37.4409 57.5842 37.4409C55.687 37.4409 54.1246 39.1149 54.1246 41.291C54.1246 43.4114 55.687 45.1969 57.5842 45.1969C59.4813 45.1969 61.0437 43.4114 61.0437 41.291Z" fill="white"/>
<path d="M108.528 47.094V53.3992H96.8107V47.094H98.9868V42.9649C98.9868 40.1191 97.9267 38.4452 95.6389 38.4452C93.128 38.4452 92.0678 40.0633 92.0678 42.9091V47.094H94.2997V53.3992H82.582V47.094H84.814V42.9649C84.814 40.0633 83.9212 38.4452 81.4102 38.4452C79.0667 38.4452 78.0065 40.0633 78.0065 42.9649V47.094H80.2385V53.3992H68.5208V47.094H70.6411V39.0032H68.5208V32.6979H77.058L77.9507 34.9299H78.1739C79.1783 33.0327 81.745 32.0283 83.9212 32.0283C86.9343 32.0283 88.6641 32.7537 90.1148 35.0414H90.338C91.6772 33.0885 94.1881 32.0283 97.5361 32.0283C102.67 32.0283 106.185 35.0414 106.185 42.9091V47.0382H108.528V47.094Z" fill="white"/>
<path d="M134.252 47.0941V53.3993H125.435L124.543 50.9442H124.375C123.427 53.1761 120.86 54.0131 118.684 54.0131C111.932 54.0131 108.919 49.4376 108.919 42.965C108.919 35.5437 113.774 32.0842 118.684 32.0842C120.916 32.0842 122.813 33.1444 123.929 34.9858H124.04L125.603 32.7538H131.852V47.1499H134.252V47.0941ZM124.598 42.965C124.598 40.2866 122.701 38.5011 120.414 38.5011C118.126 38.5011 116.284 40.3424 116.284 42.965C116.284 46.0339 118.237 47.8195 120.135 47.8195C122.646 47.8195 124.598 46.0339 124.598 42.965Z" fill="white"/>
<path d="M47.9311 65.6192C39.2823 65.6192 31.7494 59.4814 28.3457 56.0777L26.5044 58.9234L22.8217 56.5241L27.8435 48.8796L29.7407 51.1116C29.8523 51.2232 38.6685 61.4901 48.4332 61.1553C53.1761 60.988 57.4726 58.3096 61.2669 53.1761L62.5503 51.3906L66.0656 54.0131L64.7823 55.7987C60.151 62.1039 54.6827 65.396 48.5448 65.5634C48.3216 65.6192 48.1543 65.6192 47.9311 65.6192Z" fill="#B53EFF"/>
<path d="M58.2538 42.9092C59.4556 42.9092 60.4299 41.9349 60.4299 40.733C60.4299 39.5312 59.4556 38.5569 58.2538 38.5569C57.0519 38.5569 56.0776 39.5312 56.0776 40.733C56.0776 41.9349 57.0519 42.9092 58.2538 42.9092Z" fill="#B53EFF"/>
<path d="M37.8873 42.9092C39.0892 42.9092 40.0635 41.9349 40.0635 40.733C40.0635 39.5312 39.0892 38.5569 37.8873 38.5569C36.6855 38.5569 35.7112 39.5312 35.7112 40.733C35.7112 41.9349 36.6855 42.9092 37.8873 42.9092Z" fill="#B53EFF"/>
<path d="M31.6379 29.1827L28.1226 26.5602C30.8009 22.989 34.4836 20.4781 38.7801 19.3063C43.3556 18.0788 48.2101 18.5809 52.4508 20.6455L50.4978 24.6072C47.2057 22.989 43.4672 22.5985 39.8961 23.547C36.604 24.4398 33.7024 26.3928 31.6379 29.1827Z" fill="#B53EFF"/>
<path d="M59.593 20.1992C58.8676 22.0964 57.919 23.3797 56.9146 24.3283C58.0864 22.5986 58.8676 20.3666 58.9792 17.5209L56.0218 17.4651C55.7986 24.8863 49.7724 25.9465 47.931 26.1139L48.21 29.0712C49.047 29.1828 50.0514 29.2944 51.2232 29.2944C54.8501 29.2944 59.6488 28.1226 62.3829 21.3152L59.593 20.1992Z" fill="#B53EFF"/>
<path d="M48.7122 8.64866C47.6521 10.3784 46.4803 11.2712 45.1411 11.4386C42.5186 11.7176 39.5054 9.31824 38.6127 8.31387L36.3807 6.02612L35.2647 9.03925C33.9814 12.6104 32.2516 14.7307 30.4102 15.2887C28.4015 15.8467 26.5601 14.5075 26.5043 14.4517L24.0492 17.6322C24.1608 17.7438 26.3927 19.4178 29.4059 19.4178C30.0755 19.4178 30.745 19.3062 31.4704 19.1388C34.093 18.4134 36.2691 16.3489 37.9431 12.9452C39.7844 14.2843 42.6302 15.7351 45.5875 15.4003C48.2658 15.1213 50.4978 13.5031 52.1717 10.6574L48.7122 8.64866Z" fill="#B53EFF"/>
<path d="M50.739 4.78635L47.5962 2.6604L45.4702 5.80323L48.6131 7.92918L50.739 4.78635Z" fill="#B53EFF"/>
<path d="M38.367 2.10789L35.2241 -0.0180664L33.0982 3.12476L36.241 5.25071L38.367 2.10789Z" fill="#B53EFF"/>
<path d="M28.4138 10.3554L25.271 8.22949L23.145 11.3723L26.2879 13.4983L28.4138 10.3554Z" fill="#B53EFF"/>
<path d="M77.6718 62.048C76.9464 61.6574 76.221 61.49 75.3841 61.49C74.7145 61.49 74.1007 61.6016 73.5427 61.8248C72.9847 62.048 72.5383 62.327 72.1477 62.7176C71.7572 63.1082 71.4782 63.4987 71.255 64.0009C71.0876 64.3915 70.9202 64.8379 70.8086 65.2843H69.86V61.8248H68.186V70.3062H69.86V66.6793H70.8086C70.8644 67.3489 71.0876 67.9626 71.4224 68.5206C71.8129 69.1902 72.3709 69.6924 73.0405 70.083C73.7101 70.4736 74.4913 70.641 75.3841 70.641C76.221 70.641 76.9464 70.4736 77.6718 70.083C78.3972 69.6924 78.9552 69.1902 79.3458 68.4648C79.7922 67.7952 79.9596 66.9583 79.9596 66.0097C79.9596 65.1169 79.7364 64.2799 79.3458 63.6103C78.9552 62.9408 78.3414 62.3828 77.6718 62.048ZM75.3841 69.246C74.8261 69.246 74.3239 69.0786 73.8775 68.8554C73.4311 68.5764 73.0963 68.1858 72.8731 67.7395C72.6499 67.2373 72.5383 66.7351 72.5383 66.1213C72.5383 65.5633 72.6499 65.0053 72.8731 64.5031C73.0963 64.0009 73.4311 63.6661 73.8775 63.3871C74.3239 63.1082 74.8261 62.9966 75.3841 62.9966C75.8863 62.9966 76.2768 63.1082 76.6674 63.2756C77.058 63.4429 77.337 63.7219 77.5602 64.0009C77.7834 64.3357 77.9508 64.6705 78.1182 65.0053C78.2298 65.3959 78.2856 65.7307 78.2856 66.1213C78.2856 66.6235 78.174 67.0699 77.9508 67.5721C77.7276 68.0742 77.3928 68.4648 77.0022 68.7996C76.5558 69.0786 75.9979 69.246 75.3841 69.246Z" fill="#B53EFF"/>
<path d="M87.325 65.9541C87.2134 65.8425 87.046 65.7867 86.9344 65.7309C87.1018 65.6193 87.2134 65.4519 87.325 65.2287C87.5482 64.8939 87.6598 64.5033 87.6598 64.0569C87.6598 63.4431 87.4366 62.9409 87.046 62.4945C86.5996 62.0481 85.93 61.825 84.8699 61.825H81.6335V70.3064H85.1489C85.93 70.3064 86.5996 70.1948 87.046 69.9158C87.5482 69.6368 87.883 69.302 88.0504 68.9114C88.2178 68.5208 88.2736 68.1302 88.2736 67.7954C88.2736 67.4048 88.162 67.07 87.9946 66.7352C87.883 66.4004 87.604 66.1772 87.325 65.9541ZM83.3075 66.6236H85.1489C85.7068 66.6236 86.0974 66.7352 86.3206 66.9584C86.5438 67.1816 86.6554 67.4606 86.6554 67.7954C86.6554 68.2418 86.488 68.8556 85.1489 68.8556H83.3633V66.6236H83.3075ZM85.7626 65.0055C85.5394 65.1729 85.1488 65.2287 84.7025 65.2287H83.3075V63.2757H84.7025C85.93 63.2757 86.0416 63.7779 86.0416 64.2243C86.0416 64.6149 85.9858 64.8381 85.7626 65.0055Z" fill="#B53EFF"/>
<path d="M96.4759 67.4049C95.918 68.6325 95.081 69.1905 93.9092 69.1905C93.407 69.1905 92.9048 69.0789 92.5142 68.7999C92.1237 68.5209 91.7889 68.1303 91.5657 67.6839C91.3983 67.2933 91.2867 66.8469 91.2309 66.4005H97.8151V65.5636C97.8151 65.0056 97.7035 64.3918 97.4245 63.778C97.2013 63.1642 96.7549 62.5504 96.1412 62.104C95.5274 61.6577 94.7462 61.3787 93.7976 61.3787C92.849 61.3787 92.012 61.6019 91.3425 62.0482C90.6729 62.4946 90.1707 63.1084 89.8917 63.778C89.5569 64.4476 89.4453 65.173 89.4453 65.9542C89.4453 66.6795 89.6127 67.3491 89.8917 68.0745C90.2265 68.7999 90.7287 69.3579 91.3425 69.8601C92.012 70.3065 92.849 70.5854 93.7976 70.5854C95.5274 70.5854 96.8665 69.6927 97.7035 68.0187L97.8151 67.7955L96.4759 67.1259V67.4049ZM91.3983 65.0056C91.5099 64.4476 91.7889 64.0012 92.1794 63.6106C92.6258 63.1642 93.1838 62.941 93.9092 62.941C94.3556 62.941 94.6904 63.0526 95.0252 63.2758C95.36 63.499 95.639 63.778 95.8064 64.1128C95.9738 64.3918 96.0854 64.7266 96.0854 65.0056H91.3983Z" fill="#B53EFF"/>
<path d="M99.8796 67.0699C99.8796 67.5721 99.8238 67.9069 99.768 68.1859C99.7122 68.4091 99.6006 68.5765 99.4332 68.6881C99.2658 68.7997 98.9868 68.8555 98.5963 68.8555H98.3173V70.3063H98.5963C100.996 70.3063 101.498 68.9113 101.498 67.6837V63.2198H104.344V70.3063H106.017V61.769H99.8796V67.0699Z" fill="#B53EFF"/>
<path d="M109.868 61.825H108.249V71.3108L113.662 65.0614V70.3064H115.28V60.8765L109.868 67.1259V61.825Z" fill="#B53EFF"/>
<path d="M124.096 62.1038C123.427 61.7132 122.645 61.49 121.753 61.49C120.637 61.49 119.744 61.8806 119.074 62.606V61.8248H117.512V74.2121H119.186V69.6366C119.856 70.362 120.748 70.6968 121.864 70.6968C122.645 70.6968 123.427 70.5294 124.096 70.1388C124.766 69.7482 125.268 69.246 125.659 68.5206C126.049 67.851 126.217 67.0141 126.217 66.1213C126.217 65.2843 126.049 64.5589 125.714 63.8335C125.268 63.1082 124.766 62.4944 124.096 62.1038ZM121.753 69.246C121.25 69.246 120.804 69.1344 120.358 68.8554C119.967 68.5764 119.632 68.2416 119.353 67.7394C119.13 67.2373 119.019 66.6793 119.019 66.1213C119.019 65.5633 119.13 65.0611 119.353 64.5589C119.577 64.0567 119.856 63.6661 120.246 63.3871C120.637 63.1082 121.083 62.9408 121.641 62.9408C122.143 62.9408 122.645 63.0524 123.036 63.2755C123.427 63.4987 123.761 63.8893 124.04 64.3357C124.264 64.8379 124.431 65.3959 124.431 66.0655C124.431 66.7351 124.319 67.2931 124.096 67.7394C123.873 68.1858 123.538 68.5764 123.148 68.7996C122.757 69.0786 122.255 69.246 121.753 69.246Z" fill="#B53EFF"/>
<path d="M129.453 61.825H127.779V71.3108L133.191 65.0614V70.3064H134.865V60.8765L129.453 67.1259V61.825Z" fill="#B53EFF"/>
<path d="M143.961 61.825H141.84L138.66 64.9497V61.825H136.986V70.3064H138.66V66.791L142.063 70.3064H144.24L139.831 65.7867L143.961 61.825Z" fill="#B53EFF"/>
<path d="M151.438 61.8248V62.606C150.768 61.8806 149.875 61.49 148.815 61.49C148.145 61.49 147.476 61.6016 146.918 61.8806C146.36 62.1038 145.914 62.4944 145.523 62.885C145.132 63.3313 144.853 63.8335 144.63 64.3357C144.463 64.8937 144.351 65.4517 144.351 66.0655C144.351 66.9583 144.574 67.7952 144.965 68.4648C145.356 69.1902 145.914 69.6924 146.583 70.083C147.253 70.4736 148.034 70.641 148.815 70.641C149.485 70.641 150.098 70.4736 150.656 70.1388C150.935 69.9714 151.214 69.7482 151.438 69.525V70.3062H153V61.769H151.438V61.8248ZM151.438 66.0655C151.438 66.7351 151.326 67.3489 151.047 67.7953C150.824 68.2416 150.489 68.6322 150.098 68.8554C149.708 69.0786 149.261 69.1902 148.815 69.1902C148.313 69.1902 147.866 69.0786 147.476 68.7996C147.085 68.5206 146.751 68.1858 146.527 67.6837C146.304 67.1815 146.193 66.6235 146.193 66.0097C146.193 65.4517 146.304 64.9495 146.527 64.4473C146.751 63.9451 147.085 63.6103 147.476 63.2756C147.866 62.9966 148.369 62.8292 148.927 62.8292C149.373 62.8292 149.708 62.9408 150.043 63.1082C150.377 63.2756 150.656 63.4987 150.88 63.8335C151.103 64.1125 151.27 64.5031 151.382 64.8379C151.382 65.2843 151.438 65.6749 151.438 66.0655Z" fill="#B53EFF"/>
</g>
<defs>
<clipPath id="clip0">
<rect width="153" height="74.2122" fill="white"/>
</clipPath>
</defs>
</svg>
