<svg width="176" height="86" viewBox="0 0 176 86" fill="none" xmlns="http://www.w3.org/2000/svg">
<g clip-path="url(#clip0)">
<path d="M29.205 49.4237C29.205 56.9336 25.7389 62.1327 17.9081 62.1327C15.4048 62.1327 12.388 61.2341 11.2969 58.6024H11.0401L10.1415 61.3625H2.76003V35.0459H0V27.857H11.1685V40.1808H11.3611C12.5806 37.9985 15.0197 36.8431 18.1007 36.8431C23.7491 36.8431 29.205 40.8227 29.205 49.4237ZM20.7323 49.4237C20.7323 46.3428 18.2932 44.2246 15.9183 44.2246C13.3508 44.2246 11.1685 46.7921 11.1685 49.4237C11.1685 53.2749 13.736 55.0722 16.1751 55.0722C18.3574 55.008 20.7323 52.8898 20.7323 49.4237Z" fill="black"/>
<path d="M53.7242 47.3697C53.7242 53.1465 48.7818 57.8963 42.7483 57.8963C36.7147 57.8963 31.8365 53.2107 31.8365 47.3697C31.8365 41.5929 36.7147 36.9073 42.7483 36.9073C48.7818 36.9073 53.7242 41.5929 53.7242 47.3697ZM46.7279 47.4981C46.7279 45.059 44.9306 43.0692 42.7483 43.0692C40.5659 43.0692 38.7687 45.059 38.7687 47.4981C38.7687 49.9372 40.5659 51.9912 42.7483 51.9912C44.9306 51.9912 46.7279 49.9372 46.7279 47.4981Z" fill="black"/>
<path d="M77.2167 47.3697C77.2167 53.1465 72.2743 57.8963 66.2407 57.8963C60.2072 57.8963 55.329 53.2107 55.329 47.3697C55.329 41.5929 60.2072 36.9073 66.2407 36.9073C72.2743 36.9073 77.2167 41.5929 77.2167 47.3697ZM70.2203 47.4981C70.2203 45.059 68.4231 43.0692 66.2407 43.0692C64.0584 43.0692 62.2611 44.9948 62.2611 47.4981C62.2611 49.9372 64.0584 51.9912 66.2407 51.9912C68.4231 51.9912 70.2203 49.9372 70.2203 47.4981Z" fill="black"/>
<path d="M124.843 54.1736V61.4267H111.364V54.1736H113.867V49.4237C113.867 46.1502 112.648 44.2246 110.016 44.2246C107.128 44.2246 105.908 46.086 105.908 49.3596V54.1736H108.476V61.4267H94.9963V54.1736H97.5638V49.4237C97.5638 46.086 96.5368 44.2246 93.6484 44.2246C90.9526 44.2246 89.733 46.086 89.733 49.4237V54.1736H92.3005V61.4267H78.8213V54.1736H81.2604V44.8665H78.8213V37.6134H88.6419L89.6688 40.1808H89.9256C91.081 37.9985 94.0335 36.8431 96.5368 36.8431C100.003 36.8431 101.993 37.6776 103.662 40.3092H103.918C105.459 38.0627 108.347 36.8431 112.198 36.8431C118.104 36.8431 122.147 40.3092 122.147 49.3596V54.1094H124.843V54.1736Z" fill="black"/>
<path d="M154.433 54.1735V61.4266H144.292L143.265 58.6024H143.072C141.981 61.1699 139.028 62.1327 136.525 62.1327C128.759 62.1327 125.292 56.8694 125.292 49.4237C125.292 40.8869 130.877 36.9073 136.525 36.9073C139.093 36.9073 141.275 38.1268 142.559 40.245H142.687L144.484 37.6775H151.673V54.2377H154.433V54.1735ZM143.329 49.4237C143.329 46.3427 141.147 44.2888 138.515 44.2888C135.883 44.2888 133.765 46.4069 133.765 49.4237C133.765 52.954 136.012 55.0079 138.194 55.0079C141.082 55.0079 143.329 52.954 143.329 49.4237Z" fill="black"/>
<path d="M55.1365 75.4836C45.1875 75.4836 36.5223 68.423 32.6069 64.5077L30.4888 67.7812L26.2524 65.0212L32.0292 56.2276L34.2116 58.795C34.34 58.9234 44.4815 70.7338 55.7141 70.3486C61.17 70.1561 66.1124 67.0751 70.4771 61.17L71.9534 59.116L75.9971 62.1328L74.5208 64.1867C69.1933 71.4398 62.903 75.2268 55.8425 75.4194C55.5858 75.4836 55.3932 75.4836 55.1365 75.4836Z" fill="white"/>
<path d="M67.011 49.3595C68.3935 49.3595 69.5142 48.2388 69.5142 46.8562C69.5142 45.4737 68.3935 44.353 67.011 44.353C65.6284 44.353 64.5077 45.4737 64.5077 46.8562C64.5077 48.2388 65.6284 49.3595 67.011 49.3595Z" fill="white"/>
<path d="M43.5829 49.3595C44.9654 49.3595 46.0862 48.2388 46.0862 46.8562C46.0862 45.4737 44.9654 44.353 43.5829 44.353C42.2003 44.353 41.0796 45.4737 41.0796 46.8562C41.0796 48.2388 42.2003 49.3595 43.5829 49.3595Z" fill="white"/>
<path d="M36.394 33.5697L32.3502 30.5529C35.4312 26.4449 39.6675 23.5565 44.6099 22.2086C49.8732 20.7965 55.4574 21.3742 60.3356 23.7491L58.0891 28.3064C54.3021 26.4449 50.0016 25.9956 45.8936 27.0868C42.1066 28.1138 38.7689 30.3603 36.394 33.5697Z" fill="white"/>
<path d="M68.5515 23.2356C67.7171 25.4179 66.6259 26.8942 65.4705 27.9854C66.8185 25.9956 67.7171 23.4281 67.8454 20.1546L64.4436 20.0904C64.1868 28.6273 57.2546 29.8468 55.1365 30.0394L55.4574 33.4413C56.4202 33.5696 57.5756 33.698 58.9235 33.698C63.0956 33.698 68.6157 32.3501 71.7608 24.5193L68.5515 23.2356Z" fill="white"/>
<path d="M56.0351 9.94893C54.8155 11.9387 53.4676 12.9657 51.9271 13.1583C48.9104 13.4792 45.4443 10.7192 44.4173 9.56381L41.8498 6.93216L40.5661 10.3982C39.0898 14.5062 37.1 16.9453 34.9818 17.5872C32.6711 18.229 30.553 16.6885 30.4888 16.6244L27.6646 20.283C27.7929 20.4114 30.3604 22.337 33.8265 22.337C34.5967 22.337 35.367 22.2086 36.2014 22.016C39.2182 21.1816 41.7214 18.8067 43.6471 14.8913C45.7652 16.4318 49.0387 18.1006 52.4406 17.7155C55.5216 17.3946 58.0891 15.5332 60.0147 12.2597L56.0351 9.94893Z" fill="white"/>
<path d="M58.3666 5.50596L54.7513 3.06042L52.3058 6.6757L55.9211 9.12124L58.3666 5.50596Z" fill="white"/>
<path d="M44.1346 2.42476L40.5193 -0.0207825L38.0737 3.5945L41.689 6.04004L44.1346 2.42476Z" fill="white"/>
<path d="M32.6852 11.912L29.0699 9.46649L26.6244 13.0818L30.2397 15.5273L32.6852 11.912Z" fill="white"/>
<path d="M89.348 71.3755C88.5136 70.9262 87.6792 70.7337 86.7164 70.7337C85.9461 70.7337 85.2401 70.8621 84.5982 71.1188C83.9563 71.3755 83.4428 71.6965 82.9935 72.1458C82.5442 72.5951 82.2233 73.0444 81.9665 73.6221C81.774 74.0714 81.5814 74.5849 81.4531 75.0984H80.3619V71.1188H78.4363V80.8752H80.3619V76.703H81.4531C81.5172 77.4733 81.774 78.1793 82.1591 78.8212C82.6084 79.5914 83.2503 80.1691 84.0205 80.6184C84.7908 81.0677 85.6894 81.2603 86.7164 81.2603C87.6792 81.2603 88.5136 81.0677 89.348 80.6184C90.1824 80.1691 90.8243 79.5914 91.2736 78.757C91.7871 77.9868 91.9797 77.024 91.9797 75.9328C91.9797 74.9058 91.7229 73.943 91.2736 73.1728C90.8243 72.4025 90.1183 71.7607 89.348 71.3755ZM86.7164 79.6556C86.0745 79.6556 85.4968 79.4631 84.9833 79.2063C84.4698 78.8854 84.0847 78.4361 83.828 77.9226C83.5712 77.3449 83.4428 76.7672 83.4428 76.0612C83.4428 75.4193 83.5712 74.7774 83.828 74.1998C84.0847 73.6221 84.4698 73.237 84.9833 72.916C85.4968 72.5951 86.0745 72.4667 86.7164 72.4667C87.294 72.4667 87.7433 72.5951 88.1927 72.7877C88.642 72.9802 88.9629 73.3011 89.2196 73.6221C89.4764 74.0072 89.669 74.3923 89.8615 74.7774C89.9899 75.2267 90.0541 75.6119 90.0541 76.0612C90.0541 76.6389 89.9257 77.1523 89.669 77.73C89.4122 78.3077 89.0271 78.757 88.5778 79.1421C88.0643 79.4631 87.4224 79.6556 86.7164 79.6556Z" fill="white"/>
<path d="M100.452 75.8687C100.324 75.7403 100.131 75.6762 100.003 75.612C100.196 75.4836 100.324 75.291 100.452 75.0343C100.709 74.6492 100.837 74.1999 100.837 73.6864C100.837 72.9803 100.581 72.4026 100.131 71.8891C99.6179 71.3756 98.8476 71.1189 97.6281 71.1189H93.9053V80.8753H97.949C98.8476 80.8753 99.6179 80.7469 100.131 80.426C100.709 80.105 101.094 79.7199 101.287 79.2706C101.479 78.8213 101.543 78.372 101.543 77.9869C101.543 77.5376 101.415 77.1524 101.223 76.7673C101.094 76.3822 100.773 76.1255 100.452 75.8687ZM95.8309 76.639H97.949C98.5909 76.639 99.0402 76.7673 99.2969 77.0241C99.5537 77.2808 99.6821 77.6018 99.6821 77.9869C99.6821 78.5004 99.4895 79.2064 97.949 79.2064H95.8951V76.639H95.8309ZM98.6551 74.7775C98.3983 74.9701 97.949 75.0343 97.4355 75.0343H95.8309V72.7878H97.4355C98.8476 72.7878 98.976 73.3654 98.976 73.8789C98.976 74.3282 98.9118 74.585 98.6551 74.7775Z" fill="white"/>
<path d="M110.979 77.5376C110.337 78.9497 109.374 79.5915 108.026 79.5915C107.449 79.5915 106.871 79.4632 106.422 79.1422C105.972 78.8213 105.587 78.372 105.33 77.8585C105.138 77.4092 105.01 76.8957 104.945 76.3822H112.519V75.4194C112.519 74.7775 112.391 74.0715 112.07 73.3654C111.813 72.6594 111.3 71.9533 110.594 71.4398C109.888 70.9263 108.989 70.6054 107.898 70.6054C106.807 70.6054 105.844 70.8622 105.074 71.3756C104.303 71.8891 103.726 72.5952 103.405 73.3654C103.02 74.1357 102.891 74.9701 102.891 75.8687C102.891 76.7031 103.084 77.4734 103.405 78.3078C103.79 79.1422 104.368 79.7841 105.074 80.3618C105.844 80.8753 106.807 81.1962 107.898 81.1962C109.888 81.1962 111.428 80.1692 112.391 78.2436L112.519 77.9869L110.979 77.2166V77.5376ZM105.138 74.7775C105.266 74.1357 105.587 73.6222 106.037 73.1729C106.55 72.6594 107.192 72.4026 108.026 72.4026C108.54 72.4026 108.925 72.531 109.31 72.7878C109.695 73.0445 110.016 73.3654 110.209 73.7506C110.401 74.0715 110.53 74.4566 110.53 74.7775H105.138Z" fill="white"/>
<path d="M114.894 77.1523C114.894 77.73 114.83 78.1151 114.766 78.4361C114.702 78.6928 114.573 78.8854 114.381 79.0138C114.188 79.1421 113.867 79.2063 113.418 79.2063H113.097V80.8752H113.418C116.178 80.8752 116.756 79.2705 116.756 77.8584V72.7235H120.029V80.8752H121.955V71.0546H114.894V77.1523Z" fill="white"/>
<path d="M126.384 71.1189H124.522V82.0306L130.748 74.8417V80.8753H132.61V70.0277L126.384 77.2166V71.1189Z" fill="white"/>
<path d="M142.751 71.4397C141.981 70.9904 141.082 70.7337 140.055 70.7337C138.772 70.7337 137.745 71.183 136.974 72.0174V71.1188H135.177V85.3682H137.103V80.1049C137.873 80.9394 138.9 81.3245 140.184 81.3245C141.082 81.3245 141.981 81.1319 142.751 80.6826C143.522 80.2333 144.099 79.6556 144.549 78.8212C144.998 78.051 145.19 77.0882 145.19 76.0612C145.19 75.0984 144.998 74.2639 144.613 73.4295C144.099 72.5951 143.522 71.889 142.751 71.4397ZM140.055 79.6556C139.478 79.6556 138.964 79.5272 138.451 79.2063C138.001 78.8854 137.616 78.5003 137.295 77.9226C137.039 77.3449 136.91 76.703 136.91 76.0612C136.91 75.4193 137.039 74.8416 137.295 74.2639C137.552 73.6863 137.873 73.237 138.322 72.916C138.772 72.5951 139.285 72.4025 139.927 72.4025C140.505 72.4025 141.082 72.5309 141.532 72.7876C141.981 73.0444 142.366 73.4937 142.687 74.0072C142.944 74.5849 143.136 75.2267 143.136 75.997C143.136 76.7672 143.008 77.4091 142.751 77.9226C142.495 78.4361 142.109 78.8854 141.66 79.1421C141.211 79.4631 140.633 79.6556 140.055 79.6556Z" fill="white"/>
<path d="M148.913 71.1189H146.988V82.0306L153.214 74.8417V80.8753H155.139V70.0277L148.913 77.2166V71.1189Z" fill="white"/>
<path d="M165.602 71.1189H163.163L159.504 74.7134V71.1189H157.578V80.8753H159.504V76.8315L163.419 80.8753H165.923L160.852 75.6762L165.602 71.1189Z" fill="white"/>
<path d="M174.203 71.1188V72.0174C173.433 71.183 172.406 70.7337 171.186 70.7337C170.416 70.7337 169.646 70.862 169.004 71.183C168.362 71.4397 167.848 71.889 167.399 72.3383C166.95 72.8518 166.629 73.4295 166.372 74.0072C166.18 74.6491 166.051 75.2909 166.051 75.997C166.051 77.024 166.308 77.9868 166.757 78.757C167.206 79.5914 167.848 80.1691 168.619 80.6184C169.389 81.0677 170.287 81.2603 171.186 81.2603C171.956 81.2603 172.662 81.0677 173.304 80.6826C173.625 80.4901 173.946 80.2333 174.203 79.9766V80.8752H176V71.0546H174.203V71.1188ZM174.203 75.997C174.203 76.7672 174.074 77.4733 173.754 77.9868C173.497 78.5003 173.112 78.9496 172.662 79.2063C172.213 79.4631 171.7 79.5914 171.186 79.5914C170.608 79.5914 170.095 79.4631 169.646 79.1421C169.196 78.8212 168.811 78.4361 168.554 77.8584C168.298 77.2807 168.169 76.6389 168.169 75.9328C168.169 75.2909 168.298 74.7133 168.554 74.1356C168.811 73.5579 169.196 73.1728 169.646 72.7877C170.095 72.4667 170.673 72.2742 171.314 72.2742C171.828 72.2742 172.213 72.4025 172.598 72.5951C172.983 72.7876 173.304 73.0444 173.561 73.4295C173.818 73.7505 174.01 74.1998 174.139 74.5849C174.139 75.0984 174.203 75.5477 174.203 75.997Z" fill="white"/>
</g>
<defs>
<clipPath id="clip0">
<rect width="176" height="85.3683" fill="white"/>
</clipPath>
</defs>
</svg>
