<svg width="43" height="43" viewBox="0 0 43 43" fill="none" xmlns="http://www.w3.org/2000/svg">
<path d="M21.2596 0.765695C17.1579 0.769463 13.1494 1.98919 9.74086 4.2707C6.33228 6.5522 3.67664 9.79304 2.10961 13.5836C0.542585 17.3741 0.134523 21.5441 0.937026 25.5665C1.73953 29.5889 3.71656 33.2831 6.61821 36.182C9.51985 39.081 13.2158 41.0547 17.239 41.8535C21.2621 42.6523 25.4317 42.2404 29.2208 40.6699C33.0099 39.0994 36.2483 36.4408 38.5267 33.0301C40.805 29.6194 42.0211 25.6098 42.0211 21.5082C42.0211 18.7826 41.4839 16.0838 40.4403 13.566C39.3967 11.0481 37.8672 8.76065 35.939 6.83429C34.0109 4.90792 31.722 3.38045 29.2032 2.33916C26.6844 1.29787 23.9851 0.763191 21.2596 0.765695ZM38.8162 27.6589C38.6885 28.0733 38.5384 28.4803 38.3665 28.8784C38.1414 29.4289 37.887 29.967 37.6043 30.4904C36.835 31.933 35.8791 33.268 34.7614 34.4613C33.0974 36.227 31.1008 37.6464 28.8863 38.6379C26.6719 39.6294 24.2833 40.1733 21.8579 40.2385C17.0664 40.3674 12.4109 38.6372 8.86667 35.4102C8.22631 34.8287 7.62181 34.2089 7.05651 33.5543C6.50358 32.8694 5.99445 32.1502 5.53217 31.4011L5.18158 30.8333L5.00627 30.5475L4.85764 30.2427C4.66329 29.8387 4.47656 29.4347 4.26696 29.027C4.05737 28.6192 3.93924 28.1772 3.77537 27.7504C3.69916 27.537 3.61532 27.3235 3.54292 27.1063L3.36761 26.4394L3.19612 25.7687C3.13044 25.5462 3.07951 25.3196 3.04367 25.0904C2.97127 24.6293 2.90267 24.172 2.83027 23.7108C2.79279 23.4789 2.77242 23.2446 2.7693 23.0097L2.7312 22.3085L2.69689 21.6035C2.69689 21.3672 2.69689 21.1309 2.71976 20.8946C2.83822 17.196 4.05032 13.6154 6.20289 10.6053L7.00697 9.54591C7.29278 9.21055 7.60147 8.89806 7.89491 8.57414C8.04353 8.41409 8.18452 8.25022 8.34077 8.09778L8.82475 7.66334C9.15249 7.38134 9.45736 7.07647 9.80033 6.82115C10.4648 6.2983 11.1638 5.82086 11.8925 5.39208C12.6003 4.96205 13.3361 4.58011 14.0951 4.24882C16.9425 3.0521 20.0388 2.5681 23.1155 2.8388C25.7737 3.08849 28.3471 3.90731 30.6609 5.23965C32.5493 6.32997 34.2272 7.7497 35.615 9.43158C36.6579 10.691 37.5234 12.0873 38.1874 13.5816C38.3169 13.8903 38.4427 14.1799 38.5684 14.4543C38.6942 14.7287 38.7552 14.9954 38.839 15.2393C38.9229 15.4832 38.9953 15.7081 39.0601 15.9138C39.1248 16.1196 39.163 16.2949 39.2049 16.4855C39.3649 17.1676 39.4526 17.5258 39.4526 17.5258C39.4526 17.5258 39.3459 17.1714 39.1401 16.5045C39.0867 16.3369 39.041 16.1463 38.9648 15.9443L38.7019 15.2889C38.6066 15.0526 38.5151 14.7935 38.3932 14.5267C38.2712 14.2599 38.1226 13.9855 37.9778 13.6883C35.8948 9.57538 32.306 6.42408 27.9584 4.89016C23.6107 3.35624 18.8391 3.55785 14.6363 5.45305C13.9388 5.7709 13.2639 6.13633 12.6166 6.54676C11.9515 6.95537 11.3149 7.40863 10.7111 7.90343C10.3986 8.14732 10.1243 8.43696 9.8232 8.69991L9.38494 9.10765C9.24013 9.24865 9.11437 9.40491 8.97717 9.55353C8.71041 9.8584 8.43223 10.1518 8.17309 10.4643L7.44523 11.4513C5.49985 14.2426 4.40878 17.5397 4.30509 20.9404C4.30509 21.1576 4.2746 21.3748 4.27841 21.592L4.31269 22.2399L4.34319 22.8839C4.34676 23.0984 4.36587 23.3124 4.40036 23.5241C4.46514 23.9509 4.52612 24.3739 4.5909 24.7931C4.60563 25.0005 4.63363 25.2067 4.67473 25.4105L4.83096 26.0278L4.98722 26.6414C5.05201 26.8434 5.12822 27.0225 5.19681 27.2359C5.34544 27.617 5.4712 28.0285 5.63507 28.4096L6.16858 29.5529L6.30197 29.8311L6.46202 30.0978L6.77833 30.6237C7.19842 31.3214 7.66169 31.9922 8.16546 32.6321C8.67836 33.2431 9.2268 33.8233 9.80794 34.3698C10.9351 35.4352 12.1986 36.3464 13.5655 37.0793C15.9603 38.3564 18.6151 39.0697 21.3275 39.1648C24.0399 39.2599 26.7382 38.7343 29.2166 37.6281C31.1395 36.7677 32.8993 35.5816 34.4185 34.1221C35.5654 33.0051 36.5667 31.7478 37.3985 30.3798C37.7186 29.8044 38.0273 29.2976 38.2255 28.8288C38.4183 28.4433 38.59 28.0477 38.74 27.6436L39.121 26.6452L38.8162 27.6589ZM14.1066 21.6949C14.867 22.8329 15.7279 23.9004 16.6789 24.8846C17.7354 25.9728 18.8941 26.9567 20.1392 27.8228C20.3025 27.9007 20.4844 27.9314 20.6643 27.9112C20.8441 27.8909 21.0147 27.8207 21.1567 27.7084L22.4676 26.4432C23.0888 25.8411 24.0377 26.1307 24.0377 26.1307C24.0377 26.1307 27.5551 27.1444 28.4354 27.4302C28.6174 27.5001 28.7828 27.6074 28.9206 27.7453C29.0585 27.8832 29.1658 28.0485 29.2357 28.2305C29.3671 28.54 29.432 28.8737 29.4262 29.2099V29.8273C29.4234 30.156 29.3479 30.48 29.2052 30.7762C29.1404 30.8829 27.9781 32.876 26.7129 33.318C25.9256 33.5964 25.0933 33.7256 24.2587 33.6991C22.5648 33.6234 20.9046 33.2005 19.3808 32.4568C17.3809 31.3637 15.5556 29.9777 13.9656 28.3449C12.1584 26.6056 10.6449 24.5851 9.48403 22.3618C8.77033 20.8254 8.38114 19.1584 8.34077 17.4649C8.32323 16.6311 8.46152 15.8013 8.74853 15.0183C9.21346 13.7607 11.2256 12.6327 11.3323 12.5717C11.6304 12.4325 11.956 12.3621 12.285 12.3659H12.9024C13.2386 12.3632 13.5715 12.4334 13.878 12.5717C14.0597 12.644 14.2241 12.754 14.3601 12.8946C14.4961 13.0352 14.6006 13.2032 14.6668 13.3873C14.9373 14.2714 15.8901 17.8078 15.8901 17.8078C15.8901 17.8078 16.1606 18.7606 15.5509 19.3703L14.259 20.6622C14.1388 20.8024 14.0607 20.9738 14.0337 21.1565C14.0068 21.3393 14.032 21.5259 14.1066 21.6949ZM20.585 16.2263C21.0117 16.1791 21.4429 16.1932 21.8655 16.2683C22.913 16.4285 23.8957 16.8757 24.7046 17.5601C25.5123 18.2534 26.1003 19.1672 26.3966 20.1896C26.4835 20.4902 26.5459 20.7974 26.5833 21.108C26.5833 21.3215 26.61 21.4472 26.61 21.4472L26.4423 21.1538C26.3356 20.967 26.1794 20.6965 25.9698 20.3916C25.4453 19.6035 24.8129 18.8928 24.091 18.2804C23.048 17.3908 21.8542 16.6951 20.566 16.2263H20.585ZM26.7739 15.4222C25.5487 14.3839 24.1708 13.5407 22.6886 12.9223C22.0618 12.6521 21.416 12.4279 20.7565 12.2516C20.7565 12.2516 20.9547 12.2516 21.3167 12.2516C21.8296 12.2806 22.3394 12.3508 22.8411 12.4612C24.5257 12.8187 26.0963 13.5857 27.4141 14.6944C28.7159 15.8195 29.7022 17.2642 30.2761 18.8863C30.4469 19.3673 30.5819 19.8602 30.68 20.3611C30.7486 20.7155 30.7715 20.9137 30.7715 20.9137L30.539 20.4068C30.3866 20.0867 30.1579 19.6447 29.8493 19.0845C29.033 17.697 27.9866 16.4586 26.7548 15.4222H26.7739ZM29.5748 12.4993C27.8074 10.9784 25.7998 9.7614 23.6337 8.89806C22.7953 8.55889 22.1094 8.33787 21.6064 8.19306C21.1033 8.04824 20.8442 7.98728 20.8442 7.98728C20.8442 7.98728 21.1262 7.98727 21.6368 8.04824C22.3622 8.1301 23.0806 8.26512 23.7862 8.45219C26.1508 9.0579 28.3441 10.2002 30.196 11.7905C31.2131 12.6808 32.103 13.7066 32.8408 14.8392C33.4364 15.7525 33.9346 16.7258 34.327 17.7431C34.5851 18.4247 34.7989 19.1222 34.9672 19.8314C35.0853 20.3344 35.1311 20.5936 35.1311 20.5936C35.1311 20.5936 35.0282 20.3268 34.8262 19.8581C34.6242 19.3893 34.3232 18.7148 33.8964 17.9222C32.7901 15.8664 31.3194 14.0289 29.5558 12.4993H29.5748Z" fill="white"/>
</svg>
